<?xml version="1.0" standalone="no"?>
<!DOCTYPE svg PUBLIC "-//W3C//DTD SVG 20010904//EN"
 "http://www.w3.org/TR/2001/REC-SVG-20010904/DTD/svg10.dtd">
<svg version="1.0" xmlns="http://www.w3.org/2000/svg"
 width="1920.000000pt" height="1080.000000pt" viewBox="0 0 1920.000000 1080.000000"
 preserveAspectRatio="xMidYMid meet">

<g transform="translate(0.000000,1080.000000) scale(0.100000,-0.100000)"
fill="#000000" stroke="none">
<path d="M0 5400 l0 -5400 9600 0 9600 0 0 5400 0 5400 -9600 0 -9600 0 0
-5400z m9777 4654 c41 -19 72 -38 69 -41 -3 -3 -12 0 -20 6 -8 7 -45 25 -83
41 -37 16 -62 30 -54 30 8 0 47 -16 88 -36z m84 -67 c-10 -9 -11 -8 -5 6 3 10
9 15 12 12 3 -3 0 -11 -7 -18z m227 -1 c-10 -7 -16 -15 -13 -18 3 -2 -2 -5
-10 -5 -22 0 -18 12 8 25 30 15 35 14 15 -2z m827 -5 c3 -5 2 -12 -3 -15 -5
-3 -9 1 -9 9 0 17 3 19 12 6z m-1915 -20 c0 -5 -9 -13 -21 -16 -15 -5 -17 -10
-9 -20 9 -11 7 -12 -9 -8 -13 3 -21 1 -21 -6 0 -7 -5 -9 -10 -6 -14 9 -4 23
34 46 36 22 36 22 36 10z m935 -11 c10 -11 16 -20 13 -20 -3 0 -13 9 -23 20
-10 11 -16 20 -13 20 3 0 13 -9 23 -20z m94 -7 c-17 -21 -31 -33 -42 -33 -8 0
44 49 52 50 2 0 -3 -8 -10 -17z m91 -23 c6 -11 8 -20 6 -20 -3 0 -10 9 -16 20
-6 11 -8 20 -6 20 3 0 10 -9 16 -20z m970 -123 c0 -5 -5 -5 -13 2 -8 6 -18 7
-22 3 -5 -4 -5 -1 -1 6 5 8 -10 34 -39 70 l-47 57 61 -64 c34 -35 61 -68 61
-74z m-2160 98 c16 -20 4 -38 -19 -26 -14 8 -26 1 -58 -33 -22 -24 -45 -51
-50 -61 -6 -10 -16 -16 -23 -13 -13 4 114 148 130 148 4 0 13 -7 20 -15z
m2270 -19 c0 -2 -17 -15 -37 -27 -21 -13 -44 -27 -50 -32 -7 -4 -13 -5 -13 -2
0 5 89 65 97 65 2 0 3 -2 3 -4z m-2570 -81 c0 -6 -69 -35 -83 -35 -18 0 0 11
40 25 45 17 43 16 43 10z m37 -1 c-3 -3 -12 -4 -19 -1 -8 3 -5 6 6 6 11 1 17
-2 13 -5z m38 -12 c-3 -3 -11 0 -18 7 -9 10 -8 11 6 5 10 -3 15 -9 12 -12z
m121 -17 c-9 -9 -16 -13 -16 -8 0 12 22 34 28 28 2 -2 -3 -11 -12 -20z m571 3
c-3 -8 -6 -5 -6 6 -1 11 2 17 5 13 3 -3 4 -12 1 -19z m2604 -25 l24 -26 -27
19 c-15 10 -28 22 -28 27 0 12 5 8 31 -20z m-3073 -3 c-7 -10 -14 -17 -17 -15
-4 4 18 35 25 35 2 0 -1 -9 -8 -20z m53 -7 c13 -16 12 -17 -3 -4 -10 7 -18 15
-18 17 0 8 8 3 21 -13z m3266 1 c-3 -3 -12 -4 -19 -1 -8 3 -5 6 6 6 11 1 17
-2 13 -5z m-1457 -8 c0 -2 -8 -10 -17 -17 -16 -13 -17 -12 -4 4 13 16 21 21
21 13z m1526 -6 c15 -6 25 -13 22 -15 -3 -3 -20 1 -39 9 -38 17 -25 21 17 6z
m-226 -20 c-20 -13 -33 -13 -25 0 3 6 14 10 23 10 15 0 15 -2 2 -10z m-3820
-18 c0 -4 -10 -9 -22 -9 -18 -2 -20 0 -8 7 18 12 30 13 30 2z m3780 4 c0 -2
-7 -7 -16 -10 -8 -3 -12 -2 -9 4 6 10 25 14 25 6z m-3867 -44 c-10 -11 -22
-17 -27 -14 -5 3 -1 11 9 19 27 19 38 16 18 -5z m-320 -10 c-8 -5 -8 -11 1
-24 7 -10 17 -14 21 -10 5 4 5 1 1 -5 -11 -19 -24 -16 -31 7 -8 25 -21 25 -74
-1 -29 -14 -41 -25 -37 -35 3 -9 1 -12 -4 -9 -6 3 -10 1 -10 -5 0 -7 6 -10 13
-7 6 2 11 9 10 15 -2 6 7 17 20 23 20 11 21 11 8 -4 -19 -24 1 -21 29 3 27 23
40 25 40 7 0 -7 -25 -24 -56 -37 -53 -21 -58 -22 -69 -7 -14 20 -26 22 -22 5
1 -7 -6 -12 -15 -10 -9 1 -22 -6 -28 -17 -9 -18 -8 -20 7 -15 10 3 4 -3 -13
-15 -34 -23 -71 -31 -76 -16 -6 20 240 165 280 165 11 0 13 -3 5 -8z m4919
-76 c3 2 8 -2 11 -10 5 -13 2 -13 -18 -4 -14 6 -25 16 -25 21 0 5 6 5 13 -2 8
-6 16 -8 19 -5z m-2215 -58 c-3 -7 -5 -2 -5 12 0 14 2 19 5 13 2 -7 2 -19 0
-25z m2190 10 c-3 -8 -6 -5 -6 6 -1 11 2 17 5 13 3 -3 4 -12 1 -19z m-3143
-19 c-7 -12 -44 -12 -44 0 0 5 6 11 13 14 17 6 38 -3 31 -14z m3244 9 c7 -9 6
-17 -5 -27 -13 -12 -14 -11 -8 10 7 21 6 22 -9 10 -15 -13 -24 -2 -9 12 10 10
19 8 31 -5z m-3199 -35 c0 -25 -1 -26 -9 -8 -12 27 -12 35 0 35 6 0 10 -12 9
-27z m2082 10 c13 -16 12 -17 -3 -4 -17 13 -22 21 -14 21 2 0 10 -8 17 -17z
m781 -8 c3 -13 1 -22 -3 -19 -9 5 -13 44 -5 44 2 0 6 -11 8 -25z m135 19 c-3
-3 -12 -4 -19 -1 -8 3 -5 6 6 6 11 1 17 -2 13 -5z m-2071 -18 c9 -22 1 -46
-12 -38 -6 4 -14 17 -18 30 -6 16 -3 22 9 22 8 0 18 -6 21 -14z m-3011 -6 c3
-6 -5 -14 -18 -19 -14 -6 -27 -16 -30 -23 -2 -7 -8 -10 -12 -5 -5 4 2 18 15
32 25 27 35 30 45 15z m2037 -15 c14 -31 -3 -58 -24 -37 -9 9 -9 12 3 12 12 0
12 2 0 9 -8 5 -21 7 -29 4 -12 -5 -12 -2 -3 15 16 29 39 28 53 -3z m2708 -10
c0 -5 -5 -3 -10 5 -5 8 -10 20 -10 25 0 6 5 3 10 -5 5 -8 10 -19 10 -25z
m-763 8 c-3 -10 -8 -31 -11 -46 -4 -15 -11 -25 -15 -22 -5 3 -11 -1 -14 -7 -2
-7 -8 -10 -12 -6 -5 5 0 16 9 27 13 14 14 20 5 23 -9 3 -6 11 9 26 27 27 35
28 29 5z m-3720 -25 c-3 -8 -6 -5 -6 6 -1 11 2 17 5 13 3 -3 4 -12 1 -19z m94
-29 c-6 -24 -9 -28 -10 -12 -1 24 9 56 16 50 2 -3 0 -20 -6 -38z m4467 10 c-3
-8 -7 -3 -11 10 -4 17 -3 21 5 13 5 -5 8 -16 6 -23z m648 15 c18 -14 18 -15
-4 -4 -12 6 -28 8 -34 4 -7 -4 -8 -3 -4 4 10 16 18 15 42 -4z m-696 -46 c0
-17 -10 -6 -25 25 l-16 32 20 -25 c11 -14 21 -28 21 -32z m-4853 27 c0 -8 -4
-12 -9 -9 -5 3 -6 10 -3 15 9 13 12 11 12 -6z m1093 -5 c-6 -11 -13 -20 -16
-20 -2 0 0 9 6 20 6 11 13 20 16 20 2 0 0 -9 -6 -20z m-864 -17 c-10 -10 -19
5 -10 18 6 11 8 11 12 0 2 -7 1 -15 -2 -18z m114 20 c0 -5 -5 -15 -10 -23 -8
-12 -10 -11 -10 8 0 12 5 22 10 22 6 0 10 -3 10 -7z m5251 -10 c13 -16 12 -17
-3 -4 -17 13 -22 21 -14 21 2 0 10 -8 17 -17z m-5638 -12 c-12 -10 -19 -22
-15 -26 4 -3 0 -5 -8 -3 -9 2 -14 -3 -12 -11 2 -9 -3 -11 -14 -7 -11 4 -15 2
-11 -8 4 -10 1 -13 -9 -9 -17 6 -17 3 -5 -30 8 -20 7 -24 -7 -23 -9 0 -16 -4
-15 -10 1 -6 -8 -10 -19 -9 -12 1 -35 -11 -51 -27 -16 -15 -33 -25 -38 -23 -4
3 -12 -2 -17 -11 -5 -9 -13 -16 -18 -16 -5 0 -25 -14 -44 -29 l-34 -29 34 -35
c19 -19 30 -35 26 -35 -5 0 -21 13 -36 28 -14 16 -32 26 -39 24 -11 -4 -11 -6
0 -14 11 -8 10 -9 -3 -5 -19 7 -58 -38 -132 -150 -29 -43 -45 -77 -40 -84 4
-8 3 -10 -4 -5 -7 4 -12 2 -12 -3 0 -6 5 -11 11 -11 6 0 9 -6 6 -12 -2 -7 -12
-12 -22 -10 -14 3 -16 -1 -12 -17 3 -13 1 -19 -6 -14 -6 4 -8 -2 -5 -15 4 -12
2 -20 -2 -17 -4 3 -13 -9 -19 -25 -6 -18 -6 -30 0 -30 5 0 9 -4 9 -10 0 -5 -4
-9 -9 -7 -5 1 -8 -1 -8 -4 1 -3 -4 -13 -11 -21 -7 -9 -15 -29 -17 -44 -2 -16
-8 -44 -14 -61 -9 -31 1 -48 12 -20 4 9 6 9 6 -1 1 -7 -6 -15 -14 -18 -17 -7
-21 -34 -4 -34 5 0 7 -5 4 -10 -4 -6 -10 -8 -14 -5 -5 2 -6 -7 -3 -20 4 -24
32 -36 32 -14 0 5 11 27 25 47 21 31 23 38 10 42 -14 5 -13 8 2 25 10 11 18
32 18 47 -1 18 5 30 17 33 22 8 34 45 18 55 -9 6 -9 9 1 16 8 4 14 3 17 -5 2
-7 10 -1 18 15 8 15 13 33 10 40 -3 8 1 11 10 7 7 -3 14 0 14 6 0 7 9 21 20
33 10 12 17 26 13 31 -4 6 -1 7 7 2 10 -6 11 -2 6 18 -5 22 -3 25 11 20 13 -5
15 -2 10 11 -4 10 -3 15 3 11 9 -6 50 29 50 43 0 4 16 22 35 39 19 18 30 35
25 38 -20 13 -10 24 14 15 21 -8 23 -6 18 13 -4 18 -3 20 9 10 18 -14 54 9 46
30 -4 10 1 13 17 12 16 -2 22 3 24 20 1 13 -5 28 -12 34 -8 7 -12 20 -9 30 6
24 39 16 39 -9 0 -13 -4 -16 -10 -10 -19 19 -29 10 -11 -10 16 -18 20 -18 51
-5 19 8 41 12 49 8 13 -4 14 -1 6 20 -7 18 -6 28 3 36 14 11 26 5 26 -13 0 -6
-4 -5 -9 3 -5 8 -11 9 -15 3 -3 -5 1 -15 9 -22 11 -9 15 -9 15 -1 0 7 5 9 12
5 7 -4 8 -3 4 5 -4 6 0 18 8 27 15 14 16 13 16 -10 0 -18 -12 -33 -46 -55 -25
-17 -48 -31 -51 -31 -3 0 -14 -10 -24 -22 -11 -11 -19 -17 -19 -13 0 4 -8 -1
-17 -11 -10 -11 -36 -32 -58 -49 -48 -35 -55 -44 -48 -64 3 -11 2 -12 -4 -4
-12 17 -65 -31 -56 -53 5 -13 2 -15 -13 -10 -16 5 -28 -6 -57 -49 -20 -30 -37
-62 -37 -70 0 -9 -7 -18 -15 -21 -8 -4 -12 -11 -9 -16 4 -6 -4 -20 -17 -32
-28 -25 -49 -60 -49 -81 0 -17 -20 -56 -33 -66 -5 -3 -9 -9 -8 -12 0 -4 -6
-22 -14 -40 -7 -18 -17 -46 -20 -63 -4 -16 -16 -54 -26 -85 -11 -31 -17 -63
-14 -72 4 -8 1 -18 -4 -22 -6 -3 -8 -11 -5 -17 4 -6 1 -13 -5 -17 -15 -10 -32
-111 -18 -111 5 0 -1 -9 -14 -20 -17 -14 -19 -18 -6 -14 9 3 17 1 17 -5 0 -6
-12 -11 -26 -11 -19 0 -25 -4 -21 -15 4 -8 2 -17 -3 -20 -11 -7 -12 7 -10 107
1 37 -4 77 -10 89 -8 15 -9 19 -1 15 6 -4 11 -4 12 1 7 60 7 64 -11 46 -10
-10 -15 -22 -12 -27 3 -5 1 -6 -5 -3 -5 3 -20 -1 -32 -9 -17 -13 -20 -19 -10
-30 6 -8 19 -14 28 -14 14 1 14 2 -2 14 -10 8 -14 17 -9 20 4 3 16 -4 25 -14
16 -19 14 -21 -31 -51 -26 -18 -57 -41 -70 -52 -22 -20 -22 -20 -37 -1 -8 10
-15 22 -15 25 0 7 124 126 162 156 24 18 30 35 49 134 66 360 187 590 394 753
28 22 72 60 98 85 37 36 50 43 56 32 12 -20 34 -4 22 16 -7 13 3 26 47 60 54
42 89 60 45 24z m542 -21 c-4 -12 -9 -19 -12 -17 -3 3 -2 15 2 27 4 12 9 19
12 17 3 -3 2 -15 -2 -27z m46 -11 c-5 -13 -10 -19 -10 -12 -1 15 10 45 15 40
3 -2 0 -15 -5 -28z m150 -16 c-12 -20 -14 -14 -5 12 4 9 9 14 11 11 3 -2 0
-13 -6 -23z m-115 -2 c0 -11 -4 -17 -8 -15 -4 3 -8 12 -8 20 0 8 4 14 8 14 4
0 8 -9 8 -19z m570 -43 c0 -19 -1 -19 -14 -1 -7 10 -18 26 -24 37 -10 18 -9
18 14 0 13 -9 24 -26 24 -36z m2904 37 c0 -8 -4 -15 -10 -15 -5 0 -10 7 -10
15 0 8 5 15 10 15 6 0 10 -7 10 -15z m1710 -72 c0 -2 -9 2 -20 9 -11 7 -20 16
-20 21 0 4 -5 5 -12 1 -7 -5 -8 -3 -4 5 5 8 2 11 -9 9 -13 -2 -19 4 -20 20 -2
20 3 18 42 -20 23 -23 43 -44 43 -45z m-113 71 c-3 -3 -12 -4 -19 -1 -8 3 -5
6 6 6 11 1 17 -2 13 -5z m-5627 -29 c7 -9 8 -15 2 -15 -5 0 -12 7 -16 15 -3 8
-4 15 -2 15 2 0 9 -7 16 -15z m1190 -10 c0 -7 3 -20 6 -28 4 -10 -4 -16 -25
-19 -21 -3 -31 0 -31 9 0 7 4 13 9 13 5 0 12 7 15 16 6 15 4 15 -10 3 -16 -13
-16 -12 -5 8 12 23 41 22 41 -2z m3490 -15 c6 -11 8 -20 6 -20 -3 0 -10 9 -16
20 -6 11 -8 20 -6 20 3 0 10 -9 16 -20z m-4581 -4 c9 -10 8 -15 -2 -19 -8 -3
-13 3 -13 14 0 23 0 23 15 5z m741 4 c0 -5 -5 -10 -11 -10 -5 0 -7 5 -4 10 3
6 8 10 11 10 2 0 4 -4 4 -10z m-800 -51 c0 -6 -4 -7 -10 -4 -5 3 -10 11 -10
16 0 6 5 7 10 4 6 -3 10 -11 10 -16z m777 -11 c-3 -8 -6 -5 -6 6 -1 11 2 17 5
13 3 -3 4 -12 1 -19z m-807 -19 c-17 -30 -29 -31 -28 -1 1 23 5 28 19 25 15
-4 16 -9 9 -24z m5042 -15 c-9 -16 -10 -14 -9 8 1 15 6 23 11 18 4 -4 4 -16
-2 -26z m265 -1 c-3 -10 -5 -4 -5 12 0 17 2 24 5 18 2 -7 2 -21 0 -30z m-61
-21 c-11 -10 -15 4 -8 28 l7 25 3 -23 c2 -13 1 -26 -2 -30z m-26 10 c0 -15 -2
-15 -10 -2 -13 20 -13 33 0 25 6 -3 10 -14 10 -23z m60 2 c0 -8 -4 -14 -10
-14 -5 0 -10 9 -10 21 0 11 5 17 10 14 6 -3 10 -13 10 -21z m-5520 -5 c0 -6
-4 -7 -10 -4 -5 3 -10 11 -10 16 0 6 5 7 10 4 6 -3 10 -11 10 -16z m5603 0
c-4 -15 -9 -17 -17 -9 -8 8 -7 13 4 20 8 5 16 10 17 10 0 0 -1 -9 -4 -21z
m-4796 -31 c-3 -7 -5 -2 -5 12 0 14 2 19 5 13 2 -7 2 -19 0 -25z m3978 22 c3
-6 -1 -7 -9 -4 -18 7 -21 14 -7 14 6 0 13 -4 16 -10z m618 -10 c3 -11 1 -18
-4 -14 -5 3 -9 12 -9 20 0 20 7 17 13 -6z m-4653 -10 c-6 -11 -13 -20 -16 -20
-2 0 0 9 6 20 6 11 13 20 16 20 2 0 0 -9 -6 -20z m-670 0 c0 -5 -2 -10 -4 -10
-3 0 -8 5 -11 10 -3 6 -1 10 4 10 6 0 11 -4 11 -10z m5130 -34 c0 -12 -5 -7
-19 24 -11 24 -11 24 3 6 9 -11 16 -24 16 -30z m41 17 c-12 -20 -14 -14 -5 12
4 9 9 14 11 11 3 -2 0 -13 -6 -23z m-5280 -2 c-7 -5 -11 -14 -7 -20 5 -7 1 -9
-8 -5 -19 7 -21 20 -3 27 20 9 33 7 18 -2z m839 -22 c0 -11 -4 -18 -10 -14 -5
3 -7 12 -3 20 7 21 13 19 13 -6z m5033 6 c-3 -9 -8 -14 -10 -11 -3 3 -2 9 2
15 9 16 15 13 8 -4z m-5263 -30 c0 -5 -5 -3 -10 5 -5 8 -10 20 -10 25 0 6 5 3
10 -5 5 -8 10 -19 10 -25z m4406 -26 c24 -26 25 -30 7 -20 -13 6 -27 20 -33
31 -15 28 -8 25 26 -11z m159 -9 c7 -24 7 -24 -9 -5 -8 11 -16 27 -16 35 0 20
16 1 25 -30z m-5272 -4 c4 -10 1 -13 -8 -9 -8 3 -12 9 -9 14 7 12 11 11 17 -5z
m550 -17 c5 -3 0 -9 -11 -11 -15 -4 -18 -1 -14 14 2 10 7 15 11 11 3 -4 10
-11 14 -14z m5567 -3 c0 -2 -7 -9 -15 -16 -13 -11 -14 -10 -9 4 5 14 24 23 24
12z m-972 -31 c-3 -3 -9 2 -12 12 -6 14 -5 15 5 6 7 -7 10 -15 7 -18z m-3835
0 c-3 -9 -8 -14 -10 -11 -3 3 -2 9 2 15 9 16 15 13 8 -4z m-858 -15 c-9 -14
-45 -32 -45 -23 0 7 24 22 48 32 2 0 0 -3 -3 -9z m4548 -52 c-2 -5 1 -15 7
-23 7 -9 8 -15 2 -15 -11 0 -42 44 -42 60 0 6 7 6 19 -2 11 -7 17 -16 14 -20z
m-4603 18 c0 -2 -7 -7 -16 -10 -8 -3 -12 -2 -9 4 6 10 25 14 25 6z m5835 -14
c-3 -3 -11 0 -18 7 -9 10 -8 11 6 5 10 -3 15 -9 12 -12z m-1135 -43 c0 -4 -4
-11 -10 -14 -6 -3 -7 1 -4 9 3 9 2 16 -4 16 -5 0 -12 10 -15 23 l-6 22 20 -24
c10 -13 19 -27 19 -32z m-5247 26 c-3 -9 -8 -14 -10 -11 -3 3 -2 9 2 15 9 16
15 13 8 -4z m5217 -43 c0 -3 -7 3 -15 14 -8 10 -14 26 -15 34 0 8 7 2 15 -14
8 -15 15 -31 15 -34z m-4710 44 c0 -2 -7 -7 -16 -10 -8 -3 -12 -2 -9 4 6 10
25 14 25 6z m-66 -50 c-16 -14 -33 -26 -39 -26 -5 0 -3 -5 5 -11 13 -9 13 -10
0 -6 -8 2 -27 -7 -42 -21 -16 -14 -28 -21 -28 -15 0 10 36 43 69 63 13 7 13
11 0 27 -12 16 -12 17 2 6 12 -10 19 -10 35 1 31 23 29 9 -2 -18z m6072 -77
c47 -61 78 -118 70 -126 -3 -3 -9 2 -13 13 -9 23 -74 120 -107 159 -14 17 -30
35 -36 42 -5 7 -10 16 -10 20 0 10 46 -41 96 -108z m-1146 69 c0 -5 -7 -3 -15
6 -8 8 -15 18 -15 22 0 3 7 1 15 -6 8 -7 15 -17 15 -22z m-205 12 c3 -6 -1 -7
-9 -4 -18 7 -21 14 -7 14 6 0 13 -4 16 -10z m1097 -3 c-6 -7 -9 -23 -5 -35 3
-13 1 -22 -6 -22 -6 0 -8 8 -4 18 6 15 5 15 -10 3 -10 -8 -21 -11 -24 -7 -4 4
6 18 22 31 34 27 43 31 27 12z m-6139 -12 c-3 -9 -8 -14 -10 -11 -3 3 -2 9 2
15 9 16 15 13 8 -4z m5184 -22 c-3 -10 -5 -4 -5 12 0 17 2 24 5 18 2 -7 2 -21
0 -30z m-148 1 c9 -20 9 -25 -1 -22 -7 3 -13 9 -13 14 0 5 -4 15 -8 22 -5 6
-4 12 1 12 5 0 14 -12 21 -26z m313 -16 c-8 -8 -9 -4 -5 13 4 13 8 18 11 10 2
-7 -1 -18 -6 -23z m926 12 c-7 -11 -17 -20 -22 -20 -5 0 -1 9 9 20 10 11 20
20 22 20 2 0 -2 -9 -9 -20z m-6418 -10 c0 -5 -4 -10 -10 -10 -5 0 -10 5 -10
10 0 6 5 10 10 10 6 0 10 -4 10 -10z m4128 -15 c-3 -3 -9 2 -12 12 -6 14 -5
15 5 6 7 -7 10 -15 7 -18z m1127 15 c3 -6 -1 -7 -9 -4 -18 7 -21 14 -7 14 6 0
13 -4 16 -10z m-617 -53 c-5 -26 -14 -47 -19 -47 -6 0 -6 8 1 19 5 11 10 30
10 44 0 21 9 41 16 34 1 -1 -2 -24 -8 -50z m-3828 28 c11 -13 10 -14 -4 -9 -9
3 -16 10 -16 15 0 13 6 11 20 -6z m1027 9 c-3 -3 -12 -4 -19 -1 -8 3 -5 6 6 6
11 1 17 -2 13 -5z m4606 -9 c-3 -9 -8 -14 -10 -11 -3 3 -2 9 2 15 9 16 15 13
8 -4z m-117 -17 c19 -1 45 -26 35 -33 -6 -3 -11 -1 -11 5 0 6 -5 8 -10 5 -6
-4 -9 -1 -8 6 2 7 -3 13 -11 14 -8 0 -16 7 -18 15 -4 12 -3 12 5 2 5 -8 13
-14 18 -14z m-639 -17 c-1 -13 -7 -17 -22 -12 -18 5 -18 6 -2 9 11 2 16 9 13
18 -3 8 -2 12 3 9 6 -3 9 -14 8 -24z m-5327 4 c5 3 12 0 16 -7 4 -7 4 -10 -1
-6 -4 4 -14 0 -22 -10 -12 -16 -13 -15 -6 3 6 18 5 19 -11 6 -9 -8 -15 -20
-12 -27 3 -8 0 -11 -10 -7 -10 4 -13 0 -8 -13 4 -14 3 -15 -3 -6 -8 10 -12 10
-22 -1 -6 -8 -11 -19 -10 -23 3 -21 -2 -35 -11 -29 -10 6 -74 -77 -70 -90 1
-4 -2 -11 -7 -14 -17 -11 -42 -71 -31 -71 6 0 8 -3 4 -7 -4 -5 -13 -8 -19 -8
-7 0 -12 -4 -13 -10 0 -5 -6 -23 -13 -40 -55 -131 -99 -324 -88 -382 2 -13 0
-23 -4 -23 -5 0 -9 -11 -9 -25 0 -14 3 -25 8 -25 10 0 9 -62 -2 -79 -6 -10 -6
-12 3 -6 10 5 11 -4 5 -40 -5 -39 -4 -46 7 -40 12 7 12 6 1 -7 -7 -8 -10 -24
-6 -34 5 -19 5 -19 -6 0 -8 11 -14 77 -17 165 -6 156 4 231 52 391 25 85 96
232 147 309 48 71 142 175 146 162 2 -6 8 -9 12 -6z m3781 -12 c-8 -15 -10
-15 -11 -2 0 17 10 32 18 25 2 -3 -1 -13 -7 -23z m-3301 3 c0 -2 -8 -10 -17
-17 -16 -13 -17 -12 -4 4 13 16 21 21 21 13z m3214 -12 c3 -8 2 -12 -4 -9 -6
3 -10 10 -10 16 0 14 7 11 14 -7z m547 -7 c-10 -9 -11 -8 -5 6 3 10 9 15 12
12 3 -3 0 -11 -7 -18z m1180 -18 c-12 -19 -21 -30 -21 -26 0 12 33 67 38 63 1
-2 -6 -19 -17 -37z m-5063 6 c-3 -3 -9 2 -12 12 -6 14 -5 15 5 6 7 -7 10 -15
7 -18z m1172 -20 c0 -5 -5 -3 -10 5 -5 8 -10 20 -10 25 0 6 5 3 10 -5 5 -8 10
-19 10 -25z m3914 5 c-10 -16 -20 -27 -22 -25 -5 5 26 55 34 55 3 0 -3 -13
-12 -30z m-5824 10 c0 -5 -2 -10 -4 -10 -3 0 -8 5 -11 10 -3 6 -1 10 4 10 6 0
11 -4 11 -10z m804 -14 c-10 -8 -21 -12 -23 -10 -3 2 4 11 15 18 10 8 21 12
23 10 3 -2 -4 -11 -15 -18z m5622 -1 c-3 -10 1 -15 14 -15 25 0 35 -17 20 -35
-14 -17 -35 -21 -25 -5 3 6 1 10 -5 10 -6 0 -8 5 -5 10 3 6 -1 13 -10 16 -12
5 -13 9 -4 20 15 18 23 18 15 -1z m104 5 c0 -5 -4 -10 -10 -10 -5 0 -10 5 -10
10 0 6 5 10 10 10 6 0 10 -4 10 -10z m-5794 -29 c-9 -14 -26 -14 -26 0 0 5 5
7 12 3 8 -5 9 -1 4 12 -5 14 -4 16 5 7 6 -6 8 -16 5 -22z m32 -6 c-1 -14 -6
-25 -10 -25 -4 0 -6 13 -5 29 1 16 5 27 9 25 4 -3 7 -16 6 -29z m5273 16 c6 9
9 10 9 2 0 -6 -5 -15 -10 -18 -14 -9 -42 14 -34 27 4 6 11 3 17 -7 8 -14 11
-15 18 -4z m-2074 -13 c2 -17 0 -19 -7 -8 -5 8 -6 18 -4 22 8 12 10 10 11 -14z
m932 -4 c-15 -18 -22 -13 -13 10 3 9 10 13 16 10 5 -3 4 -12 -3 -20z m-4202
-26 c-3 -7 -5 -2 -5 12 0 14 2 19 5 13 2 -7 2 -19 0 -25z m-727 12 c0 -5 -4
-10 -10 -10 -5 0 -10 5 -10 10 0 6 5 10 10 10 6 0 10 -4 10 -10z m1810 -5 c0
-8 -4 -15 -10 -15 -5 0 -10 7 -10 15 0 8 5 15 10 15 6 0 10 -7 10 -15z m2117
7 c10 8 17 8 25 0 9 -9 8 -12 -4 -12 -9 0 -23 -3 -31 -6 -8 -3 -17 2 -21 13
-6 14 -5 15 5 6 9 -9 16 -10 26 -1z m967 -7 c-4 -8 -11 -12 -16 -9 -6 4 -5 10
3 15 19 12 19 11 13 -6z m1223 -70 c3 -8 11 -15 18 -15 19 0 36 -25 41 -59 5
-27 2 -31 -19 -31 -14 0 -24 -6 -24 -14 0 -11 6 -12 25 -5 14 5 28 7 31 3 3
-4 0 -9 -6 -11 -7 -3 -13 -11 -13 -18 0 -8 -5 -17 -12 -21 -7 -5 -8 -3 -3 6 6
10 4 12 -8 7 -9 -3 -20 -1 -24 6 -5 7 -17 17 -28 23 -11 7 -19 19 -19 28 1 9
-5 16 -13 16 -10 0 -13 6 -9 17 4 9 1 21 -6 26 -9 6 -6 7 9 4 15 -3 20 -1 16
9 -7 18 -40 18 -50 0 -7 -12 -11 -12 -27 -1 -20 15 -33 75 -16 75 6 0 10 -4
10 -10 0 -5 7 -10 16 -10 11 0 14 6 9 21 -6 19 -4 19 45 -6 28 -14 53 -32 57
-40z m409 40 c2 -21 0 -22 -17 -12 -24 15 -25 32 -1 34 11 1 17 -6 18 -22z
m76 3 c-7 -7 -12 -8 -12 -2 0 14 12 26 19 19 2 -3 -1 -11 -7 -17z m-3149 -8
c-3 -11 -10 -23 -16 -27 -5 -3 -8 -2 -5 3 3 5 8 17 11 27 9 24 16 22 10 -3z
m429 7 c-9 -10 -7 -20 5 -38 l16 -24 -26 24 c-25 22 -25 25 -9 37 22 17 27 17
14 1z m-77 -27 c10 -11 16 -20 13 -20 -3 0 -13 9 -23 20 -10 11 -16 20 -13 20
3 0 13 -9 23 -20z m-3035 6 c0 -2 -7 -7 -16 -10 -8 -3 -12 -2 -9 4 6 10 25 14
25 6z m4170 -17 c-7 -11 -14 -18 -17 -15 -3 3 0 12 7 21 18 21 23 19 10 -6z
m43 -3 c-10 -13 -20 -22 -22 -20 -4 4 29 44 36 44 2 0 -4 -11 -14 -24z m-1422
-9 c-10 -9 -11 -8 -5 6 3 10 9 15 12 12 3 -3 0 -11 -7 -18z m3014 -43 c2 -24
2 -24 -14 -6 -23 26 -45 65 -32 57 6 -3 11 0 11 7 0 21 32 -31 35 -58z m-3861
31 c-7 -16 -24 -21 -24 -6 0 8 7 13 27 20 1 1 0 -6 -3 -14z m1079 -10 c-3 -9
-8 -14 -10 -11 -3 3 -2 9 2 15 9 16 15 13 8 -4z m128 -12 c13 -16 12 -17 -3
-4 -10 7 -18 15 -18 17 0 8 8 3 21 -13z m-1255 -6 c-54 -35 -58 -41 -46 -72 9
-24 9 -28 -1 -17 -20 18 -33 14 -18 -5 13 -16 12 -17 -4 -4 -13 10 -15 17 -6
27 20 24 -4 15 -35 -13 l-31 -28 30 33 c28 31 112 93 124 91 3 0 -2 -6 -13
-12z m1099 -14 c-3 -31 -17 -53 -39 -65 -16 -8 -15 -4 8 21 38 40 27 40 -21
-1 l-38 -32 25 29 c20 24 61 64 66 65 1 0 0 -8 -1 -17z m2845 -45 c0 -5 -4 -8
-10 -8 -5 0 -10 10 -10 23 0 18 2 19 10 7 5 -8 10 -18 10 -22z m-6000 2 c0 -5
-2 -10 -4 -10 -3 0 -8 5 -11 10 -3 6 -1 10 4 10 6 0 11 -4 11 -10z m1881 -17
c13 -16 12 -17 -3 -4 -10 7 -18 15 -18 17 0 8 8 3 21 -13z m4133 -7 c-3 -8 -1
-17 5 -21 13 -8 14 -25 2 -25 -12 0 -24 37 -16 50 9 15 15 12 9 -4z m-5526
-12 c-3 -14 -77 -49 -85 -40 -2 2 6 15 18 29 23 31 73 38 67 11z m3689 -6 c-3
-8 -6 -5 -6 6 -1 11 2 17 5 13 3 -3 4 -12 1 -19z m-2313 -57 c-6 -6 -44 40
-44 53 0 6 11 -2 24 -19 13 -16 22 -32 20 -34z m90 48 c20 17 21 5 1 -15 -8
-9 -15 -12 -15 -9 0 4 -9 -3 -20 -16 -10 -13 -19 -18 -20 -11 0 6 5 12 11 12
5 0 7 5 4 10 -5 8 -11 7 -21 -1 -13 -11 -14 -9 -3 14 10 21 14 24 29 14 14 -8
22 -8 34 2z m4086 -40 c0 -5 5 -7 12 -3 7 4 8 3 4 -4 -10 -17 -36 -15 -36 3 0
8 5 15 10 15 6 0 10 -5 10 -11z m-5512 -51 c-11 -63 -12 -64 -60 -71 -34 -5
-37 -3 -43 23 -8 38 9 68 48 85 59 26 65 22 55 -37z m5551 -68 c0 -8 -7 1 -14
20 -18 46 -17 64 0 25 8 -16 14 -37 14 -45z m31 -95 c0 -5 -5 -3 -10 5 -5 8
-10 20 -10 25 0 6 5 3 10 -5 5 -8 10 -19 10 -25z m95 5 c10 -11 14 -20 9 -20
-5 0 -15 9 -22 20 -7 11 -11 20 -9 20 2 0 12 -9 22 -20z m-1241 -52 c14 -20
23 -98 12 -98 -2 0 -11 -3 -20 -6 -11 -4 -19 3 -27 22 -16 43 -19 64 -8 64 6
0 7 5 4 10 -7 12 2 30 15 30 5 0 16 -10 24 -22z m1166 7 c7 -9 8 -15 2 -15 -5
0 -12 7 -16 15 -3 8 -4 15 -2 15 2 0 9 -7 16 -15z m124 -3 c2 -4 -4 -8 -14 -8
-10 0 -16 4 -14 8 3 4 9 8 14 8 5 0 11 -4 14 -8z m-7219 -23 c-4 -5 0 -9 6 -9
7 0 -17 -29 -55 -65 -37 -36 -70 -65 -72 -65 -7 0 60 108 84 135 20 23 51 27
37 4z m-218 -15 c-3 -3 -12 -4 -19 -1 -8 3 -5 6 6 6 11 1 17 -2 13 -5z m143
-8 c0 -11 -19 -15 -25 -6 -3 5 1 10 9 10 9 0 16 -2 16 -4z m7529 -119 c17 -19
38 -28 78 -33 32 -4 50 -10 43 -14 -7 -4 -18 -7 -24 -6 -6 2 -27 6 -47 10 -22
5 -46 20 -64 42 -16 19 -33 34 -39 34 -6 0 -20 13 -31 28 -19 26 -19 26 20 -5
22 -17 51 -42 64 -56z m-5031 34 c16 -10 13 -42 -4 -48 -7 -2 -19 4 -28 13
-13 12 -14 19 -5 30 13 16 19 17 37 5z m4855 -32 c21 -17 36 -34 33 -37 -3 -2
-24 12 -46 32 -49 44 -39 48 13 5z m-2656 -11 c-3 -7 -5 -2 -5 12 0 14 2 19 5
13 2 -7 2 -19 0 -25z m-4798 -60 c-67 -79 -74 -87 -63 -67 18 31 99 129 107
129 5 0 -15 -28 -44 -62z m7837 47 c-11 -8 -25 -15 -30 -15 -6 0 -2 7 8 15 11
8 25 15 30 15 6 0 2 -7 -8 -15z m-5254 -35 c-1 -16 2 -21 13 -16 9 3 15 0 15
-9 0 -9 -6 -12 -17 -8 -11 4 -14 3 -9 -5 4 -7 1 -12 -9 -12 -20 0 -29 23 -21
56 8 31 32 26 28 -6z m808 21 c0 -5 13 -16 28 -24 26 -13 30 -12 45 6 11 13
31 20 66 23 54 4 60 0 36 -26 -15 -17 -34 -91 -20 -78 5 4 14 3 21 -3 11 -9
16 -5 24 15 5 14 14 26 20 26 13 0 13 -23 0 -36 -9 -9 -22 -84 -23 -131 0 -14
-20 -24 -57 -29 -17 -2 -31 4 -42 19 -13 17 -18 19 -21 7 -3 -8 -8 -23 -11
-32 -10 -31 -36 -10 -29 23 6 33 0 35 -41 14 -35 -18 -44 -12 -50 37 -3 20
-14 54 -25 76 -29 57 -21 84 33 108 37 16 46 17 46 5z m712 -91 c7 -90 -2
-121 -28 -99 -10 8 -14 8 -14 0 0 -25 -17 -8 -26 27 -13 47 -8 62 17 62 11 0
18 -4 14 -9 -3 -5 -1 -12 5 -16 14 -9 13 38 -2 53 -7 7 -19 12 -28 12 -12 0
-15 8 -12 34 4 31 5 33 35 27 l32 -7 7 -84z m3688 90 c0 -5 -2 -10 -4 -10 -3
0 -8 5 -11 10 -3 6 -1 10 4 10 6 0 11 -4 11 -10z m-2940 -18 c25 -21 52 -83
54 -127 1 -25 -3 -30 -29 -35 -29 -5 -31 -4 -58 69 -36 100 -23 138 33 93z
m2726 -21 c13 11 14 9 9 -12 -5 -19 0 -30 20 -47 14 -12 33 -22 43 -23 11 0
12 -2 4 -6 -10 -4 -10 -8 -1 -19 6 -8 15 -11 20 -8 5 3 8 2 7 -3 -2 -4 5 -19
14 -32 15 -21 19 -23 35 -10 16 13 17 12 5 -3 -8 -9 -11 -22 -7 -28 12 -19 -8
-10 -27 13 -10 12 -60 64 -111 116 -51 52 -77 84 -59 72 27 -19 35 -21 48 -10z
m-7851 -1 c3 -5 -1 -10 -10 -10 -9 0 -13 5 -10 10 3 6 8 10 10 10 2 0 7 -4 10
-10z m7988 -20 c10 -16 16 -30 13 -30 -2 0 -14 14 -26 30 -12 17 -18 30 -13
30 5 0 17 -13 26 -30z m-7303 -10 c0 -29 -189 -95 -315 -110 -49 -6 -107 -13
-127 -16 -39 -6 -88 16 -148 67 -30 25 -6 14 35 -17 45 -34 79 -39 159 -21 39
9 104 21 143 26 40 6 110 26 155 46 91 38 98 40 98 25z m7349 -64 c-3 -3 -11
5 -18 17 -13 21 -12 21 5 5 10 -10 16 -20 13 -22z m-7369 -10 c0 -2 -20 -16
-45 -30 -25 -13 -43 -21 -40 -15 4 5 23 18 43 29 41 21 42 22 42 16z m7385
-16 c3 -5 1 -10 -4 -10 -6 0 -11 5 -11 10 0 6 2 10 4 10 3 0 8 -4 11 -10z
m-7135 -34 c0 -3 -4 -8 -10 -11 -5 -3 -10 -1 -10 4 0 6 5 11 10 11 6 0 10 -2
10 -4z m-784 -73 c-14 -26 -25 -45 -26 -41 0 12 43 98 48 94 2 -2 -8 -26 -22
-53z m7614 -17 c0 -2 -8 -10 -17 -17 -16 -13 -17 -12 -4 4 13 16 21 21 21 13z
m379 -44 c-1 -16 -2 -16 -6 0 -4 16 -6 16 -31 2 l-27 -16 25 20 c27 22 41 20
39 -6z m-8040 -66 c-43 -157 -50 -408 -15 -536 8 -30 14 -56 12 -58 -8 -8 -37
108 -48 195 -14 110 -1 266 33 376 21 71 37 90 18 23z m8070 -31 c0 -5 -4 -3
-9 5 -5 8 -9 22 -9 30 0 16 17 -16 18 -35z m-7829 -24 c0 -6 -11 -22 -25 -37
-15 -16 -23 -34 -20 -43 3 -8 3 -12 -1 -8 -9 9 -46 -51 -39 -64 4 -5 2 -9 -3
-9 -5 0 -14 -12 -21 -27 -10 -21 -9 -28 1 -34 10 -7 10 -9 -2 -9 -10 0 -20
-17 -28 -47 -7 -27 -18 -67 -24 -90 -8 -32 -8 -49 0 -68 10 -21 9 -25 -5 -25
-25 0 -8 -11 29 -20 30 -7 31 -8 6 -9 -18 -1 -29 -8 -34 -23 l-8 -23 -7 25 -7
25 -1 -27 c-1 -18 5 -29 19 -33 11 -3 20 -10 20 -15 0 -5 -7 -7 -16 -3 -12 4
-15 2 -12 -8 3 -8 -1 -22 -10 -31 -13 -15 -13 -20 -1 -35 10 -12 11 -15 1 -9
-11 6 -12 -16 -7 -116 3 -67 10 -124 16 -126 5 -2 9 -8 9 -13 0 -6 -5 -7 -10
-4 -11 7 -7 -36 5 -55 3 -5 2 -10 -4 -10 -5 0 -13 9 -16 21 -6 19 -7 20 -20 2
-10 -13 -10 -20 -2 -25 8 -5 7 -8 -4 -8 -19 0 -54 -73 -44 -91 5 -7 4 -10 -2
-6 -6 4 -13 -1 -15 -11 -6 -21 4 -53 17 -54 6 0 9 -4 8 -8 -1 -4 4 -11 13 -14
9 -4 12 -2 8 5 -4 6 0 15 7 20 10 6 8 10 -11 18 -22 9 -23 10 -4 10 11 1 29 8
40 16 19 15 19 15 -1 8 -17 -6 -18 -5 -5 9 8 9 19 14 24 11 4 -3 5 13 1 36 -4
27 -3 41 4 41 6 0 11 -9 11 -20 0 -12 7 -20 18 -21 14 0 14 -2 2 -7 -9 -4 -15
-13 -14 -19 1 -7 2 -18 3 -24 0 -5 6 -7 11 -4 7 4 9 -2 4 -19 -4 -17 -2 -26 6
-26 6 0 9 -4 5 -9 -3 -5 1 -29 9 -52 8 -24 14 -44 12 -46 -5 -6 -46 85 -46
103 -1 55 -19 40 -60 -48 -60 -128 -100 -289 -99 -398 0 -70 2 -82 12 -66 59
93 81 116 173 179 126 87 134 92 134 73 0 -13 -57 -60 -145 -117 -51 -33 -98
-87 -155 -179 -31 -50 -63 -86 -105 -117 -61 -46 -140 -90 -172 -96 -18 -4
-67 -23 -87 -34 -7 -4 -8 -2 -1 5 6 5 51 31 101 56 90 46 231 163 236 196 1 8
-2 96 -6 195 -8 199 -1 271 40 399 14 43 41 104 61 134 34 55 35 56 28 133
l-7 78 -49 -25 c-27 -13 -75 -47 -106 -75 -102 -93 -163 -106 -278 -58 -68 28
-63 44 5 18 61 -23 130 -24 174 -4 18 9 61 41 97 73 35 31 86 68 112 82 45 24
47 27 47 68 0 24 -7 57 -16 73 -8 17 -13 33 -10 36 3 3 10 -5 15 -18 5 -13 10
-19 10 -12 4 68 35 253 52 303 21 65 94 210 133 263 21 29 26 32 26 18z m7635
-22 c28 -10 73 -25 100 -33 49 -14 49 -14 15 -15 -59 -2 -153 27 -180 56 -21
22 -22 25 -5 18 11 -4 43 -16 70 -26z m-7440 -4 c17 -13 25 -24 19 -25 -6 0
-18 7 -25 16 -7 9 -22 20 -34 24 -13 6 -15 9 -5 9 8 1 29 -10 45 -24z m46 8
c13 -16 12 -17 -3 -4 -10 7 -18 15 -18 17 0 8 8 3 21 -13z m44 -1 c-3 -3 -11
0 -18 7 -9 10 -8 11 6 5 10 -3 15 -9 12 -12z m7552 -24 c-3 -8 -6 -5 -6 6 -1
11 2 17 5 13 3 -3 4 -12 1 -19z m-7607 -35 c-20 -14 -23 -14 -38 3 -16 17 -16
17 2 4 17 -13 20 -13 29 2 6 9 15 14 20 11 5 -3 -1 -12 -13 -20z m-66 -46 c18
-13 18 -14 1 -21 -10 -3 -20 -4 -23 -1 -3 3 1 5 9 5 10 1 8 5 -5 15 -11 8 -15
15 -10 15 6 0 18 -6 28 -13z m7507 -4 c13 -16 12 -17 -3 -4 -17 13 -22 21 -14
21 2 0 10 -8 17 -17z m-7563 -103 c17 -11 32 -22 32 -25 0 -5 -41 15 -70 34
-28 19 5 11 38 -9z m577 -10 c-7 -22 1 -25 25 -10 9 5 19 5 27 -2 9 -7 20 -6
38 6 30 20 35 20 35 2 0 -8 -51 -48 -112 -90 -144 -96 -138 -90 -183 -161 -35
-56 -215 -254 -257 -284 -33 -23 53 90 122 160 36 36 82 95 103 131 45 76 56
87 160 158 42 29 77 54 77 56 0 1 -13 1 -29 -1 -23 -3 -29 0 -25 11 2 7 6 21
9 29 2 8 7 15 10 15 4 0 3 -9 0 -20z m-617 -37 c16 -16 16 -16 -1 -10 -10 4
-23 7 -28 7 -6 0 -7 5 -4 10 9 14 14 13 33 -7z m740 -45 c36 -36 -16 -83 -52
-48 -19 19 -19 19 5 39 28 24 31 25 47 9z m-768 -2 c0 -11 -19 -15 -25 -6 -3
5 1 10 9 10 9 0 16 -2 16 -4z m6697 -120 c89 -61 128 -104 188 -206 22 -35 60
-86 86 -113 l48 -49 58 5 c32 3 69 8 83 11 18 4 15 2 -8 -9 -54 -25 -114 -30
-150 -11 -37 19 -94 88 -165 199 -40 63 -64 87 -127 132 -43 30 -82 55 -86 55
-4 0 -17 -8 -28 -17 -21 -18 -21 -18 -3 3 23 27 22 29 -15 53 -56 36 -70 49
-63 61 4 7 23 -1 53 -23 26 -18 84 -59 129 -91z m-6687 72 c0 -5 -8 -8 -17 -8
-16 0 -16 -2 -3 -11 11 -8 8 -9 -15 -5 -23 5 -26 4 -13 -4 13 -8 15 -16 7 -42
-5 -17 -6 -34 -4 -37 3 -2 -2 -12 -11 -22 -9 -10 -14 -27 -11 -39 3 -11 1 -20
-4 -20 -4 0 -9 -19 -9 -42 -1 -66 -3 -78 -12 -78 -4 0 -8 -5 -8 -11 0 -5 5 -7
10 -4 6 3 10 1 10 -4 0 -6 -6 -11 -14 -11 -11 0 -12 -7 -7 -27 5 -19 3 -36 -7
-51 -8 -12 -12 -31 -9 -42 3 -11 2 -20 -2 -20 -4 0 -8 -6 -9 -12 -4 -56 -23
-141 -36 -164 -14 -27 -15 -28 -16 -6 0 13 -3 21 -7 19 -5 -3 -8 8 -8 24 0 16
5 29 10 29 6 0 3 5 -5 10 -12 8 -12 10 5 10 16 0 17 2 5 9 -8 6 -18 7 -22 5
-4 -3 -8 0 -8 5 0 6 9 11 19 11 16 0 19 7 19 33 -1 17 -8 37 -17 44 -14 10
-14 11 3 10 12 -1 20 5 22 18 1 11 8 61 14 110 6 50 16 98 21 108 10 19 3 41
-11 32 -5 -3 -11 -1 -15 5 -3 5 3 10 14 10 25 0 32 21 12 38 -14 11 -14 12 3
10 15 -2 24 7 36 40 12 33 19 39 28 30 7 -7 12 -8 12 -2 0 6 -5 15 -11 21 -7
7 -6 15 6 27 9 9 14 20 11 25 -3 5 5 4 19 -2 14 -7 25 -15 25 -19z m7062 -17
c9 -9 19 -30 23 -48 5 -27 2 -34 -24 -54 -17 -13 -31 -31 -31 -42 0 -13 -5
-17 -15 -13 -10 3 -19 -1 -23 -12 -10 -24 -32 -26 -32 -2 0 11 7 20 15 20 21
0 19 16 -6 49 -22 30 -19 70 7 92 8 6 14 18 14 25 0 18 48 8 72 -15z m-7195
-77 c-3 -3 -12 -4 -19 -1 -8 3 -5 6 6 6 11 1 17 -2 13 -5z m2047 -33 c3 -4
-20 -41 -50 -82 -64 -84 -93 -141 -94 -181 0 -46 -21 -77 -67 -99 -39 -19 -55
-21 -131 -15 -48 3 -91 6 -95 6 -5 0 -6 4 -2 9 3 6 -10 8 -32 5 -26 -4 -34 -3
-24 4 7 5 16 30 18 56 l6 46 22 -22 c21 -20 21 -24 9 -44 -13 -19 -13 -22 1
-27 15 -6 19 -3 53 41 21 29 56 21 46 -10 -5 -16 -3 -19 7 -13 8 5 6 -1 -5
-13 -17 -19 -17 -22 -2 -28 25 -10 112 15 139 40 18 16 27 39 32 77 9 67 13
75 89 176 61 82 70 91 80 74z m5179 -53 c-7 -13 -23 -9 -30 8 -3 9 0 20 8 25
14 8 31 -18 22 -33z m-7310 -72 c4 -10 1 -13 -9 -9 -15 6 -19 23 -5 23 5 0 11
-7 14 -14z m56 -43 c-1 -17 -3 -21 -6 -10 -2 9 -9 17 -14 17 -6 0 -7 5 -4 10
12 19 25 10 24 -17z m4861 -47 c0 -3 -4 -8 -10 -11 -5 -3 -10 -1 -10 4 0 6 5
11 10 11 6 0 10 -2 10 -4z m-1470 -53 c-24 -27 -45 -50 -47 -52 -2 -2 -3 -1
-3 3 0 8 80 96 88 96 2 0 -15 -21 -38 -47z m1547 25 c-3 -8 -6 -5 -6 6 -1 11
2 17 5 13 3 -3 4 -12 1 -19z m2513 6 c0 -8 -91 -46 -97 -41 -3 3 12 15 34 26
38 20 63 26 63 15z m-1927 -161 c48 -71 94 -149 103 -175 9 -27 20 -48 25 -48
5 0 9 -5 9 -10 0 -23 -41 12 -61 53 -12 23 -51 85 -88 137 -37 52 -75 108 -84
123 -17 26 -16 47 2 47 4 0 46 -57 94 -127z m-5226 92 c0 -8 -4 -12 -9 -9 -4
3 -8 0 -8 -7 0 -7 -3 -9 -6 -6 -4 4 -1 13 6 22 15 19 17 19 17 0z m-973 -11
c5 -13 4 -14 -7 -6 -8 7 -17 9 -20 5 -4 -3 -7 -1 -7 5 0 18 27 14 34 -4z
m3590 -40 c3 -8 2 -12 -4 -9 -6 3 -10 10 -10 16 0 14 7 11 14 -7z m-1384 -24
c-39 -7 -45 -5 -36 8 3 5 20 6 38 3 l33 -5 -35 -6z m2203 -132 c5 -163 19
-301 44 -412 13 -62 13 -70 -1 -84 -15 -15 -16 -14 -16 9 0 14 -6 45 -14 70
-18 58 -50 307 -50 389 1 155 4 180 18 180 11 0 15 -30 19 -152z m-2038 112
c17 -7 17 -9 3 -9 -10 -1 -18 -4 -18 -8 0 -13 -50 -32 -66 -26 -22 8 -12 37
16 44 34 9 42 9 65 -1z m-120 -10 c-3 -5 -12 -10 -18 -10 -7 0 -6 4 3 10 19
12 23 12 15 0z m3325 -18 c0 -15 -2 -15 -10 -2 -13 20 -13 33 0 25 6 -3 10
-14 10 -23z m-116 -26 c-3 -15 -8 -25 -11 -23 -2 3 -1 17 3 31 3 15 8 25 11
23 2 -3 1 -17 -3 -31z m3266 -1 c27 -14 76 -35 107 -46 32 -12 71 -31 87 -42
16 -11 45 -26 65 -33 34 -12 35 -13 8 -14 -15 0 -46 10 -69 21 -23 12 -70 32
-104 45 -102 38 -154 65 -154 80 0 19 3 18 60 -11z m-1974 -43 c3 -26 11 -52
16 -59 5 -7 8 -20 6 -29 -2 -12 -12 0 -30 33 -27 48 -35 92 -22 106 13 13 23
-4 30 -51z m-5430 -8 c-21 -20 -28 -17 -16 6 6 11 15 18 21 15 5 -4 3 -12 -5
-21z m-739 10 c-3 -3 -12 -4 -19 -1 -8 3 -5 6 6 6 11 1 17 -2 13 -5z m4924
-37 c-13 -12 -20 -15 -16 -7 14 26 28 41 33 35 3 -3 -5 -16 -17 -28z m-471
-33 c0 -2 -9 -4 -20 -4 -11 0 -20 4 -20 9 0 5 9 7 20 4 11 -3 20 -7 20 -9z
m718 -52 c2 -34 7 -50 14 -46 7 5 7 1 0 -11 -5 -10 -7 -45 -5 -77 5 -49 3 -58
-10 -58 -11 0 -20 15 -28 43 -6 23 -18 57 -26 75 -8 18 -12 36 -9 40 2 4 1 14
-5 22 -7 13 -9 12 -9 -1 0 -9 -7 -19 -15 -23 -27 -10 -16 25 18 60 18 19 41
32 52 31 17 -2 20 -11 23 -55z m-298 17 c0 -6 7 -9 15 -5 9 3 15 0 15 -9 0 -8
-4 -15 -9 -15 -10 0 -8 -46 2 -56 3 -4 9 5 13 20 3 14 10 26 14 26 12 0 21
-43 11 -53 -5 -5 -5 -23 -1 -40 10 -48 4 -57 -38 -51 -81 10 -127 11 -154 3
-33 -9 -36 3 -8 31 11 11 20 29 20 40 0 12 5 17 13 14 8 -3 17 11 25 41 9 34
17 45 31 45 11 0 23 5 26 10 8 13 25 13 25 -1z m-4163 -21 c-3 -8 -6 -5 -6 6
-1 11 2 17 5 13 3 -3 4 -12 1 -19z m2607 -71 c2 -64 1 -66 -16 -50 -19 17 -22
49 -12 102 10 50 25 22 28 -52z m1164 43 c33 -31 40 -54 20 -66 -7 -4 -8 -3
-4 4 4 7 3 12 -3 12 -5 0 -16 2 -23 5 -11 4 -14 -6 -15 -46 -1 -53 -11 -69
-47 -69 -16 0 -18 6 -13 47 3 26 1 57 -4 70 -5 14 -5 23 1 23 5 0 12 11 16 25
8 33 31 31 72 -5z m276 15 c-10 -8 -26 -14 -34 -14 -11 0 -10 3 4 14 11 8 27
15 35 15 11 0 10 -4 -5 -15z m16 -25 c-19 -13 -30 -13 -30 0 0 6 10 10 23 10
18 0 19 -2 7 -10z m-4662 -115 c-3 -3 -9 2 -12 12 -6 14 -5 15 5 6 7 -7 10
-15 7 -18z m3207 -15 c-3 -5 -11 -10 -16 -10 -6 0 -7 5 -4 10 3 6 11 10 16 10
6 0 7 -4 4 -10z m-2608 -77 c-3 -10 -5 -2 -5 17 0 19 2 27 5 18 2 -10 2 -26 0
-35z m4083 2 c0 -8 -7 -15 -15 -15 -9 0 -12 6 -9 15 4 8 10 15 15 15 5 0 9 -7
9 -15z m-4073 -57 c-3 -8 -6 -5 -6 6 -1 11 2 17 5 13 3 -3 4 -12 1 -19z m7178
-126 c-3 -3 -11 0 -18 7 -9 10 -8 11 6 5 10 -3 15 -9 12 -12z m-19 -24 c4 -6
3 -8 -4 -4 -6 3 -15 -2 -21 -11 -12 -20 -14 -13 -5 11 7 19 20 21 30 4z
m-7620 -36 c-17 -16 -18 -16 -5 5 7 12 15 20 18 17 3 -2 -3 -12 -13 -22z
m7562 3 c-6 -14 -15 -25 -20 -25 -5 0 -1 11 8 25 9 14 18 25 20 25 2 0 -2 -11
-8 -25z m-3903 -5 c-27 -12 -43 -12 -25 0 8 5 22 9 30 9 10 0 8 -3 -5 -9z
m-3690 -51 c-9 -17 -19 -29 -22 -26 -5 5 25 57 33 57 3 0 -3 -14 -11 -31z
m3732 25 c-3 -3 -12 -4 -19 -1 -8 3 -5 6 6 6 11 1 17 -2 13 -5z m4093 -208
c47 -31 90 -61 95 -67 6 -7 27 -29 48 -50 47 -48 24 -52 -25 -5 -19 18 -73 57
-119 86 -46 29 -115 77 -152 108 -38 32 -78 64 -89 73 -14 11 -19 23 -15 33 6
14 22 5 89 -52 46 -38 121 -94 168 -126z m-7859 121 c-10 -9 -11 -8 -5 6 3 10
9 15 12 12 3 -3 0 -11 -7 -18z m-42 -109 c-16 -48 -36 -127 -43 -175 -11 -68
-14 -78 -15 -43 -1 62 24 173 56 248 14 34 27 61 29 59 2 -1 -10 -42 -27 -89z
m7975 -162 c-3 -15 -8 -25 -11 -23 -2 3 -1 17 3 31 3 15 8 25 11 23 2 -3 1
-17 -3 -31z m-8737 -2 c-3 -3 -12 -4 -19 -1 -8 3 -5 6 6 6 11 1 17 -2 13 -5z
m1738 -73 c3 -6 -42 -62 -99 -126 -81 -90 -108 -127 -122 -168 -25 -76 -51
-125 -100 -189 -25 -31 -52 -74 -60 -94 -8 -20 -31 -60 -51 -89 -20 -32 -32
-59 -27 -66 4 -7 3 -10 -4 -5 -5 3 -13 0 -15 -6 -3 -8 -6 -6 -6 5 -1 10 7 27
18 38 10 11 30 51 45 89 15 39 52 106 81 150 29 44 61 102 71 128 38 106 55
132 150 234 54 59 102 108 106 108 4 0 9 -4 13 -9z m5820 -11 c3 -5 -1 -10 -9
-10 -9 0 -16 5 -16 10 0 6 4 10 9 10 6 0 13 -4 16 -10z m15 -30 c8 -5 11 -10
5 -10 -5 0 -17 5 -25 10 -8 5 -10 10 -5 10 6 0 17 -5 25 -10z m-40 -19 c0 -8
-29 -37 -31 -30 -7 35 -6 39 12 39 10 0 19 -4 19 -9z m-9 -25 c17 15 21 16 33
3 7 -8 16 -30 20 -49 4 -25 3 -31 -4 -20 -8 13 -10 13 -10 -2 0 -10 -12 -19
-31 -23 -24 -5 -35 -2 -50 14 -10 11 -19 23 -19 26 0 9 28 5 33 -5 3 -6 4 -5
3 2 -1 7 -12 14 -24 16 -24 4 -29 21 -11 39 9 9 15 8 27 -3 13 -13 17 -13 33
2z m1236 -2 c-3 -3 -12 -4 -19 -1 -8 3 -5 6 6 6 11 1 17 -2 13 -5z m-8089 -39
c-3 -3 -9 2 -12 12 -6 14 -5 15 5 6 7 -7 10 -15 7 -18z m32 -25 c0 -5 -2 -10
-4 -10 -3 0 -8 5 -11 10 -3 6 -1 10 4 10 6 0 11 -4 11 -10z m6641 -202 c56
-84 132 -188 168 -230 64 -74 128 -174 118 -184 -3 -3 -27 23 -53 58 -27 35
-72 88 -100 118 -49 52 -264 362 -264 381 0 5 7 9 15 9 8 0 60 -68 116 -152z
m-4577 86 c3 -9 -1 -14 -12 -14 -10 0 -18 8 -19 19 -2 22 22 19 31 -5z m5838
-96 c-55 -118 -101 -174 -177 -220 l-52 -31 63 -84 c35 -47 66 -94 69 -106 2
-12 9 -49 15 -82 6 -33 19 -89 30 -125 12 -41 14 -59 6 -48 -11 15 -29 77 -67
228 -10 40 -124 203 -145 208 -8 2 -14 11 -13 20 0 11 2 12 6 5 2 -7 9 -13 14
-13 6 0 7 5 3 12 -5 7 -3 8 6 3 8 -5 17 -2 24 7 9 12 38 29 56 32 14 3 30 18
26 24 -2 4 13 25 35 47 21 21 39 44 39 50 0 6 9 21 21 33 11 12 17 27 14 32
-3 6 -3 10 2 10 4 0 21 25 37 55 48 89 41 55 -12 -57z m-7853 22 c1 -11 -1
-12 -7 -2 -6 9 -13 6 -28 -10 -19 -23 -64 -110 -64 -126 0 -18 -53 -83 -78
-96 -40 -20 -102 -31 -102 -17 0 6 10 11 23 11 12 0 40 10 62 23 34 19 48 37
90 124 28 56 60 111 70 123 18 20 20 20 26 3 4 -10 8 -25 8 -33z m5261 3 c0
-7 -9 -2 -24 13 -9 8 -16 20 -16 26 0 6 9 1 20 -12 11 -13 20 -25 20 -27z
m-3266 -3 c16 -17 24 -30 18 -30 -7 0 -12 -6 -12 -14 0 -7 -6 -19 -14 -25 -12
-10 -17 -8 -26 9 -6 11 -8 25 -5 30 3 6 -1 10 -9 10 -16 0 -22 31 -9 43 12 13
28 6 57 -23z m3261 -20 c3 -5 -1 -23 -10 -40 -9 -17 -15 -41 -14 -53 1 -12 -2
-30 -6 -41 -6 -13 -3 -21 9 -28 11 -6 14 -17 10 -36 -11 -45 -22 -47 -38 -7
-22 52 -20 110 6 167 21 48 31 57 43 38z m-5235 -35 c0 -5 -5 -3 -10 5 -5 8
-10 20 -10 25 0 6 5 3 10 -5 5 -8 10 -19 10 -25z m207 -1 c-3 -3 -12 -4 -19
-1 -8 3 -5 6 6 6 11 1 17 -2 13 -5z m3090 -29 c0 -17 -13 -20 -21 -6 -4 5 0
12 6 14 7 3 13 6 14 6 0 1 1 -6 1 -14z m-3240 -112 c-5 -4 -57 104 -57 116 1
3 15 -20 31 -53 17 -32 28 -60 26 -63z m3751 70 c12 -27 22 -59 21 -73 0 -23
-1 -23 -9 -5 -4 11 -16 29 -27 40 -17 19 -28 85 -14 85 3 0 16 -21 29 -47z
m-1285 -59 c12 -4 9 -21 -18 -97 -18 -51 -43 -114 -56 -142 -17 -39 -23 -74
-26 -165 -2 -63 -9 -127 -15 -142 -11 -30 -90 -107 -110 -109 -7 -1 -26 -3
-41 -5 -24 -2 -27 -1 -17 12 7 7 16 14 21 14 5 0 28 12 50 26 62 39 82 94 74
197 -6 70 -4 92 15 147 27 80 101 270 105 270 2 0 10 -3 18 -6z m2121 -148
c17 -111 18 -139 8 -210 -7 -45 -12 -101 -12 -124 0 -23 -4 -42 -10 -42 -6 0
-9 6 -7 13 1 6 -5 11 -13 9 -13 -2 -13 -1 0 10 20 17 18 204 -4 351 -20 133
-20 129 2 125 14 -3 21 -27 36 -132z m-5084 90 c0 -2 -15 -6 -34 -8 -19 -2
-32 0 -30 4 5 8 64 12 64 4z m103 -13 c-13 -2 -33 -2 -45 0 -13 2 -3 4 22 4
25 0 35 -2 23 -4z m441 -95 c3 -43 9 -85 12 -95 5 -17 5 -17 -6 -1 -10 17 -28
188 -18 178 3 -3 9 -40 12 -82z m823 15 c-3 -10 -5 -4 -5 12 0 17 2 24 5 18 2
-7 2 -21 0 -30z m-777 -13 c0 -5 -2 -10 -4 -10 -3 0 -8 5 -11 10 -3 6 -1 10 4
10 6 0 11 -4 11 -10z m7255 -57 c-3 -21 -11 -42 -17 -48 -8 -7 -9 -4 -4 10 9
23 14 45 15 63 1 6 4 12 7 12 3 0 3 -17 -1 -37z m249 -99 c-15 -30 -32 -58
-37 -61 -13 -8 2 39 19 58 8 8 19 31 26 49 6 19 13 29 16 22 2 -7 -9 -38 -24
-68z m-7434 -33 c0 -49 2 -104 5 -122 5 -32 5 -33 -6 -9 -16 36 -25 220 -10
220 7 0 11 -29 11 -89z m7154 46 c-21 -66 -189 -292 -276 -371 -80 -73 -96
-72 -19 1 33 31 58 60 55 65 -3 5 0 7 6 6 15 -4 152 171 144 183 -3 5 -1 9 5
9 10 0 57 76 55 89 -1 3 6 11 14 17 9 7 12 16 7 24 -5 9 -4 11 4 6 7 -5 9 -16
5 -29z m-7059 -67 c3 -5 1 -10 -4 -10 -6 0 -11 5 -11 10 0 6 2 10 4 10 3 0 8
-4 11 -10z m-92 -143 c6 3 7 1 3 -5 -4 -6 1 -23 10 -37 9 -14 12 -25 7 -25
-11 0 -93 151 -93 171 0 8 14 -14 32 -48 17 -35 35 -60 41 -56z m171 74 c-2
-3 -12 3 -22 13 -16 17 -16 18 5 5 12 -7 20 -15 17 -18z m27 -44 c-12 -31 -77
-126 -112 -164 -25 -27 -28 -35 -19 -58 7 -17 7 -24 0 -20 -6 3 -10 13 -10 21
0 26 -19 15 -82 -48 -34 -34 -67 -63 -73 -65 -5 -1 -20 -4 -33 -7 -13 -3 -20
-1 -17 5 4 5 11 9 17 9 21 0 233 225 277 292 41 64 70 84 52 35z m6639 3 c0
-5 -5 -10 -11 -10 -5 0 -7 5 -4 10 3 6 8 10 11 10 2 0 4 -4 4 -10z m-6086 -16
c3 -8 2 -12 -4 -9 -6 3 -10 10 -10 16 0 14 7 11 14 -7z m6613 -86 c-3 -8 -6
-5 -6 6 -1 11 2 17 5 13 3 -3 4 -12 1 -19z m-550 -29 c14 -5 23 -12 20 -16 -9
-8 -57 25 -56 40 0 9 2 8 6 -1 3 -7 16 -18 30 -23z m533 -29 c-16 -40 -23 -33
-9 9 6 18 14 30 17 27 2 -3 -1 -19 -8 -36z m-535 -49 c3 -5 2 -12 -3 -15 -5
-3 -9 1 -9 9 0 17 3 19 12 6z m500 -28 c-39 -93 -101 -182 -234 -338 l-74 -86
30 -32 c51 -56 59 -74 12 -29 -25 23 -49 42 -54 42 -9 0 -82 -79 -98 -107 -4
-6 20 -46 55 -91 35 -45 71 -92 81 -106 23 -33 90 -78 150 -100 60 -22 55 -34
-6 -13 -68 23 -123 62 -168 119 -23 29 -64 77 -91 106 l-51 54 -50 -51 c-49
-50 -105 -83 -160 -97 -46 -11 -23 19 38 49 30 15 55 31 55 36 0 5 9 11 20 14
13 3 18 1 13 -6 -3 -7 5 -1 19 13 13 14 22 29 20 34 -3 5 0 6 5 3 6 -4 16 0
22 7 10 11 9 21 -2 43 -8 15 -27 68 -42 117 -15 48 -54 140 -87 203 -55 106
-68 148 -34 112 27 -27 124 -224 141 -284 23 -84 46 -145 55 -145 9 0 90 112
108 150 6 14 16 32 22 40 14 21 36 77 39 100 0 6 8 10 16 10 8 0 14 3 14 8 -4
21 2 32 13 26 8 -5 9 -2 5 9 -3 10 -3 17 1 17 4 0 12 17 19 38 20 63 33 95 39
90 2 -3 0 -18 -6 -34 -11 -28 -11 -28 10 -9 18 16 26 17 51 8 36 -14 38 -8 3
10 -24 13 -24 14 -8 28 10 8 15 9 11 3 -4 -6 5 -16 21 -23 24 -10 25 -10 9 3
-17 13 -16 15 12 21 29 6 36 16 31 40 -1 8 27 35 37 35 2 0 -4 -17 -12 -37z
m-5555 -19 c-35 -15 -68 -19 -56 -6 7 7 11 8 37 11 5 0 8 5 5 10 -3 4 6 6 21
3 l25 -5 -32 -13z m5030 -8 c0 -8 -71 -48 -76 -43 -3 3 11 15 33 26 42 22 43
23 43 17z m-5775 -193 c26 -40 13 -33 -30 16 -32 35 -35 41 -13 27 15 -10 34
-29 43 -43z m3220 -3 c3 -5 1 -10 -4 -10 -6 0 -11 5 -11 10 0 6 2 10 4 10 3 0
8 -4 11 -10z m-3638 -32 c-3 -8 -6 -5 -6 6 -1 11 2 17 5 13 3 -3 4 -12 1 -19z
m-282 -68 c7 0 15 -4 17 -8 2 -5 21 -20 43 -35 22 -15 35 -27 30 -27 -17 1
-119 75 -122 91 -3 8 0 7 7 -3 6 -10 17 -18 25 -18z m292 -2 c-3 -7 -5 -2 -5
12 0 14 2 19 5 13 2 -7 2 -19 0 -25z m517 7 c3 -8 12 -15 21 -15 8 0 15 -4 15
-10 0 -17 -15 -11 -40 15 -13 14 -19 25 -13 25 6 0 13 -7 17 -15z m4640 -77
c-45 -55 -68 -78 -78 -78 -6 0 -3 5 7 11 9 5 17 17 17 25 0 8 4 13 8 10 5 -3
19 8 31 24 12 17 24 30 28 30 3 0 -2 -10 -13 -22z m-5289 -18 c3 -6 -1 -7 -9
-4 -18 7 -21 14 -7 14 6 0 13 -4 16 -10z m1015 -104 c0 -8 -21 -72 -46 -143
-41 -114 -46 -139 -50 -233 -3 -79 -10 -124 -31 -185 -15 -44 -30 -81 -33 -83
-7 -3 -4 -153 5 -206 3 -21 15 -51 25 -66 17 -23 17 -29 5 -34 -19 -7 -25 4
-41 82 -24 112 -20 224 10 327 19 64 26 112 26 173 0 73 6 100 47 220 25 75
50 143 56 150 13 16 27 15 27 -2z m-1031 -48 c18 43 26 40 26 -8 1 -22 -3 -40
-8 -40 -4 0 -5 5 -2 10 3 6 1 10 -4 10 -8 0 -10 -34 -7 -102 2 -57 0 -116 -3
-133 -4 -17 -8 24 -8 94 -1 121 -1 123 -30 155 -16 17 -35 40 -43 51 -7 11 5
0 26 -24 l40 -44 13 31z m6706 -18 c10 -11 16 -20 13 -20 -3 0 -13 9 -23 20
-10 11 -16 20 -13 20 3 0 13 -9 23 -20z m-1620 0 c-3 -5 -11 -10 -16 -10 -6 0
-7 5 -4 10 3 6 11 10 16 10 6 0 7 -4 4 -10z m935 -17 c-5 -16 -14 -49 -21 -75
-10 -43 -52 -119 -94 -173 -26 -33 -17 -9 26 64 22 39 37 76 33 82 -4 7 -3 9
3 6 11 -7 24 28 28 70 2 19 21 53 30 53 2 0 -1 -12 -5 -27z m-5730 -8 c7 -9 8
-15 2 -15 -5 0 -12 7 -16 15 -3 8 -4 15 -2 15 2 0 9 -7 16 -15z m-260 -25 c0
-5 -2 -10 -4 -10 -3 0 -8 5 -11 10 -3 6 -1 10 4 10 6 0 11 -4 11 -10z m6380
-20 c0 -5 -4 -10 -10 -10 -5 0 -10 5 -10 10 0 6 5 10 10 10 6 0 10 -4 10 -10z
m-6047 -18 c3 7 4 3 4 -9 -1 -13 -2 -23 -3 -23 0 0 -9 10 -20 22 -13 16 -14
19 -2 10 13 -10 17 -10 21 0z m6437 -7 c7 -9 8 -15 2 -15 -5 0 -12 7 -16 15
-3 8 -4 15 -2 15 2 0 9 -7 16 -15z m-441 -86 c-24 -45 -60 -104 -82 -132 -48
-61 -48 -60 37 -245 35 -78 63 -142 61 -142 -15 0 -155 273 -155 304 0 18 -2
18 -25 -4 -14 -13 -28 -21 -31 -17 -4 3 6 16 20 29 26 22 27 24 13 63 -19 54
-32 133 -20 120 6 -5 20 -38 33 -73 18 -50 25 -60 36 -51 7 6 16 19 19 30 4
11 11 17 16 14 5 -4 9 -2 9 4 0 5 14 30 30 55 17 25 36 60 42 78 12 36 28 61
35 54 3 -2 -14 -41 -38 -87z m-1547 -120 c21 -74 49 -169 63 -211 22 -68 25
-95 25 -223 0 -124 3 -151 19 -183 25 -48 55 -76 111 -101 52 -24 37 -28 -18
-5 -45 18 -102 72 -102 95 0 10 -7 25 -16 34 -13 13 -18 48 -24 173 -5 112
-12 168 -23 196 -20 45 -82 272 -90 329 -4 26 -2 37 5 35 7 -3 29 -65 50 -139z
m-4714 16 c-3 -3 -9 2 -12 12 -6 14 -5 15 5 6 7 -7 10 -15 7 -18z m592 -25 c0
-5 -4 -10 -10 -10 -5 0 -10 5 -10 10 0 6 5 10 10 10 6 0 10 -4 10 -10z m2143
-144 c-4 -111 -1 -198 11 -313 9 -87 21 -201 26 -253 6 -53 8 -127 4 -165 -4
-51 -1 -82 10 -114 11 -29 13 -48 6 -60 -8 -14 -10 -14 -11 4 -1 11 -2 26 -2
32 1 7 -3 10 -8 8 -12 -8 -22 59 -23 165 -1 52 -7 133 -13 180 -32 223 -44
379 -38 511 7 152 9 159 29 159 13 0 14 -22 9 -154z m-2846 112 c-3 -7 -5 -2
-5 12 0 14 2 19 5 13 2 -7 2 -19 0 -25z m5848 -7 c-3 -6 -11 -8 -17 -5 -7 5
-8 2 -3 -6 6 -10 -8 -28 -45 -61 -30 -26 -56 -46 -58 -44 -2 2 18 25 45 51 26
26 41 44 33 40 -8 -4 -2 4 14 19 27 25 45 28 31 6z m-5603 -75 c6 4 8 3 5 -3
-4 -6 4 -20 17 -32 20 -19 28 -21 46 -11 24 13 23 14 39 -18 7 -12 32 -47 57
-78 25 -30 37 -51 27 -44 -52 31 -191 152 -231 200 -36 44 -38 48 -8 17 20
-21 42 -35 48 -31z m503 16 c-3 -3 -11 0 -18 7 -9 10 -8 11 6 5 10 -3 15 -9
12 -12z m5401 -104 c-51 -166 -176 -309 -410 -468 -76 -52 -166 -120 -200
-150 -68 -62 -164 -126 -173 -117 -7 8 37 46 53 47 6 0 23 11 38 25 15 14 30
25 33 25 3 0 25 20 47 44 23 23 49 46 59 49 10 4 16 11 13 16 -3 5 1 12 10 15
8 3 12 10 9 16 -3 5 -1 10 6 10 17 0 34 25 78 110 21 41 46 91 57 110 10 19
17 44 16 55 -2 16 -1 17 7 5 13 -19 19 -12 22 30 4 46 8 53 24 40 8 -7 20 -8
26 -4 8 4 9 3 5 -4 -4 -7 -2 -12 5 -12 7 0 6 -9 -5 -25 -9 -14 -14 -30 -11
-35 3 -6 -1 -20 -9 -32 -9 -12 -16 -32 -16 -45 0 -12 -4 -25 -10 -28 -13 -8
-13 -25 1 -25 5 0 7 5 3 12 -5 8 -2 9 9 5 9 -3 16 -3 16 1 -4 26 1 34 16 22 8
-7 12 -17 8 -24 -3 -6 0 -5 8 3 11 10 11 15 2 18 -7 3 -13 10 -13 16 0 8 4 7
12 -1 16 -16 30 -15 54 4 10 8 13 13 7 9 -7 -3 -13 -1 -13 5 0 7 7 10 15 7 12
-5 29 8 30 23 0 9 30 47 36 46 3 0 13 7 23 17 10 9 14 17 10 17 -4 0 0 8 8 18
25 29 65 108 83 164 20 59 25 71 31 66 2 -3 -7 -38 -20 -80z m-5399 -30 c-3
-8 -6 -5 -6 6 -1 11 2 17 5 13 3 -3 4 -12 1 -19z m-237 -143 c30 -30 52 -55
49 -55 -2 0 -29 25 -59 55 -30 30 -52 55 -49 55 2 0 29 -25 59 -55z m248 -45
c0 -16 -3 -11 -9 15 -4 22 -8 51 -7 65 0 16 3 11 9 -15 4 -22 8 -51 7 -65z
m-108 -57 c19 -9 37 -17 40 -18 3 -1 12 -4 20 -7 8 -4 24 -9 35 -14 11 -4 23
-7 27 -6 4 1 11 -13 16 -31 7 -25 4 -46 -14 -94 -15 -42 -19 -65 -12 -69 6 -4
9 -30 6 -66 -4 -48 -9 -64 -32 -86 -31 -30 -31 -28 3 39 19 37 22 54 17 85 -4
20 -11 33 -14 27 -4 -6 -7 24 -7 67 0 43 3 76 8 73 4 -2 7 0 7 6 0 5 3 17 7
27 5 14 2 16 -15 12 -12 -4 -22 -3 -22 1 0 4 -21 18 -47 30 -27 12 -61 34 -78
48 -20 18 -22 20 -5 9 14 -9 41 -24 60 -33z m118 2 c-3 -3 -9 2 -12 12 -6 14
-5 15 5 6 7 -7 10 -15 7 -18z m12 -25 c0 -5 -5 -10 -11 -10 -5 0 -7 5 -4 10 3
6 8 10 11 10 2 0 4 -4 4 -10z m4512 -111 c15 -57 27 -126 28 -154 0 -27 5 -68
10 -90 8 -36 7 -38 -6 -21 -8 11 -14 32 -14 48 0 15 -1 31 -2 36 -6 29 -39
178 -52 230 -10 46 -11 62 -3 59 7 -2 24 -50 39 -108z m-3172 -87 c-6 -35 -29
-105 -51 -156 -55 -124 -63 -139 -67 -128 -2 6 17 63 41 129 24 65 50 150 56
188 7 39 15 79 19 90 13 36 14 -54 2 -123z m-1266 -1 c6 -11 28 -42 48 -70 21
-28 35 -51 30 -51 -9 0 -84 104 -95 132 -9 25 0 19 17 -11z m-135 -97 c-7 -27
-21 -63 -32 -81 -10 -18 -15 -38 -11 -44 4 -7 2 -10 -5 -8 -17 6 -16 7 8 59
11 25 25 65 31 89 6 23 13 41 16 38 3 -2 -1 -26 -7 -53z m4521 46 c17 -6 9 -7
-25 -3 -27 3 -52 7 -54 9 -8 7 54 2 79 -6z m-1476 -37 c3 -21 8 -83 11 -138 5
-73 15 -125 37 -193 30 -87 31 -96 20 -153 -10 -55 -49 -148 -72 -173 -5 -5 5
29 21 75 40 116 39 145 -9 279 -24 64 -43 340 -24 340 6 0 13 -17 16 -37z
m1256 3 c0 -2 -8 -10 -17 -17 -16 -13 -17 -12 -4 4 13 16 21 21 21 13z m-4091
-72 c7 5 9 1 5 -8 -4 -10 -1 -16 7 -16 7 0 9 -3 6 -7 -9 -8 -77 56 -77 71 1 6
11 -2 24 -18 13 -16 29 -25 35 -22z m4057 -6 c-34 -57 -49 -60 -22 -4 11 25
27 45 34 46 9 0 5 -14 -12 -42z m-4003 2 c4 0 5 6 3 13 -1 6 -1 9 1 5 3 -4 4
-10 3 -14 -3 -11 55 -54 68 -49 6 2 12 -3 12 -11 0 -8 4 -13 9 -10 5 3 12 -1
15 -10 3 -9 13 -14 21 -10 8 3 21 -2 30 -10 8 -8 19 -12 25 -9 5 3 10 1 10 -4
0 -6 7 -11 16 -11 8 0 13 -4 10 -9 -6 -9 22 -26 37 -23 4 1 7 -2 7 -8 0 -5 15
-7 33 -5 27 4 28 3 7 -3 -24 -8 -24 -9 10 -17 19 -4 46 -15 60 -25 14 -9 31
-15 38 -13 6 3 12 0 12 -7 0 -6 5 -8 10 -5 6 3 10 1 10 -6 0 -7 10 -9 25 -7
14 3 25 2 25 -2 0 -4 6 -10 14 -13 10 -4 12 1 9 16 -5 22 -5 22 10 2 15 -18
16 -18 17 -2 0 15 -11 21 -32 18 -14 -2 -54 46 -49 60 4 12 2 12 -12 1 -15
-12 -16 -11 -14 16 2 31 16 33 48 5 14 -12 18 -12 22 -1 3 7 6 3 6 -9 1 -14
11 -26 30 -34 16 -7 27 -18 24 -23 -4 -5 0 -7 9 -4 8 3 19 -2 25 -11 10 -16
88 -47 106 -43 4 1 7 -3 7 -9 0 -5 4 -8 9 -4 5 3 12 -4 16 -15 7 -21 37 -28
33 -7 -2 6 6 12 17 12 11 0 26 4 34 9 10 6 16 6 18 -1 2 -5 15 -8 28 -5 14 2
23 8 20 12 -3 4 2 10 10 13 9 4 12 1 9 -7 -8 -21 18 -25 61 -10 61 21 53 8
-10 -15 -80 -30 -135 -41 -196 -38 -52 2 -54 1 -60 -28 -13 -61 -9 -144 11
-205 11 -34 20 -71 20 -81 0 -37 196 -69 290 -47 58 14 140 42 140 48 0 3 -15
11 -32 19 -18 7 -28 15 -21 17 6 3 26 -2 43 -11 31 -16 60 -21 185 -30 90 -6
185 -31 248 -65 31 -16 63 -30 72 -30 8 0 15 -3 15 -7 0 -5 24 -9 53 -11 28
-2 56 -7 61 -12 5 -5 23 -7 40 -4 l31 4 -30 -10 c-37 -13 -122 -5 -223 21 -42
12 -88 23 -102 25 -51 9 -226 55 -267 71 -23 8 -50 13 -60 9 -188 -63 -186
-62 -169 -79 21 -21 20 -30 -2 -23 -15 5 -17 0 -14 -37 2 -23 9 -46 14 -52 8
-7 9 -5 5 7 -3 10 0 33 8 52 14 33 16 35 45 24 17 -5 39 -8 50 -5 11 3 20 2
20 -3 0 -7 16 -7 115 3 22 2 48 5 57 6 11 1 15 6 12 16 -15 38 8 7 56 -75 51
-89 116 -165 195 -228 22 -18 35 -32 29 -32 -19 0 -124 96 -170 156 -25 32
-57 80 -70 105 l-23 46 -53 -9 c-29 -6 -94 -8 -144 -4 l-91 5 -15 -37 c-11
-29 -11 -42 -2 -62 7 -14 14 -54 16 -90 4 -60 4 -63 -8 -35 -7 17 -13 47 -14
67 0 72 -18 47 -21 -31 -3 -61 -9 -86 -25 -108 -23 -30 -84 -71 -84 -56 0 5
10 15 23 22 47 26 61 60 68 166 4 75 3 107 -7 127 -8 15 -14 42 -14 61 0 40
-14 47 -93 47 -26 0 -64 7 -84 15 -19 8 -39 15 -44 15 -5 0 -9 -37 -9 -82 0
-54 -5 -93 -15 -112 -8 -15 -15 -35 -15 -44 0 -8 -3 -13 -6 -9 -3 3 -1 30 5
59 7 32 9 83 5 131 l-7 78 -66 43 c-43 28 -69 39 -73 32 -5 -7 -8 -3 -8 9 -1
34 -117 127 -239 191 -92 48 -130 75 -201 144 -49 47 -96 101 -105 120 -18 40
-22 44 58 -61 38 -49 117 -114 140 -114 7 -1 11 -6 10 -13 -3 -10 16 -17 40
-13 4 0 7 -3 7 -9 0 -5 7 -7 15 -4 8 4 15 1 15 -5 0 -6 7 -11 16 -11 9 0 13 5
9 13 -4 6 0 4 8 -6 11 -13 16 -14 19 -6 5 15 57 -19 58 -37 1 -32 279 -269
296 -252 3 3 -5 44 -18 90 -19 74 -21 94 -12 156 l9 71 -60 16 c-155 43 -357
129 -495 213 -106 64 -137 88 -151 117 -9 18 -9 19 4 3 8 -10 17 -18 20 -18z
m3957 -72 c0 -17 -42 -64 -115 -127 -53 -47 -209 -132 -282 -155 -49 -16 -18
5 82 53 58 27 105 54 105 59 0 5 15 17 34 27 19 11 33 23 30 27 -3 4 -1 8 5 8
11 0 52 33 100 81 42 43 41 43 41 27z m400 -11 c0 -14 -61 -37 -99 -37 -11 0
-21 -1 -21 -2 0 -2 7 -38 15 -81 14 -76 14 -80 -11 -165 -14 -48 -28 -106 -31
-130 -3 -23 -9 -44 -12 -47 -11 -6 5 105 24 170 13 45 16 79 11 138 -7 94 -18
119 -49 112 -12 -4 -34 -2 -47 4 l-25 10 25 2 c14 1 29 1 34 0 5 -1 13 4 17
11 7 10 9 10 9 1 0 -7 12 -13 28 -13 22 0 45 7 130 39 1 1 2 -5 2 -12z m-250
-23 c0 -2 -9 -4 -20 -4 -11 0 -20 4 -20 9 0 5 9 7 20 4 11 -3 20 -7 20 -9z
m-3698 -36 c-10 -22 -10 -21 -9 9 1 19 6 28 11 23 6 -6 5 -18 -2 -32z m-862
28 c0 -2 -7 -7 -16 -10 -8 -3 -12 -2 -9 4 6 10 25 14 25 6z m4624 -53 c-20
-88 -72 -190 -134 -261 -79 -92 -150 -134 -330 -193 -112 -37 -131 -47 -180
-93 -30 -29 -98 -86 -151 -129 -90 -72 -95 -79 -92 -109 l3 -33 -13 28 c-11
24 -15 25 -31 14 -15 -11 -18 -30 -19 -117 -2 -58 -7 -113 -13 -123 -7 -13
-10 11 -9 87 0 57 -3 107 -6 110 -3 3 -30 -7 -60 -22 -30 -15 -55 -28 -57 -28
-2 -1 15 -61 37 -134 40 -127 52 -208 31 -195 -5 3 -10 18 -11 33 -1 47 -84
287 -98 284 -31 -7 -180 -2 -228 7 -29 6 -87 24 -130 40 l-77 30 -71 -64 c-38
-36 -80 -74 -92 -85 -13 -11 -25 -36 -29 -60 -4 -22 -10 -42 -14 -45 -4 -2 -4
16 0 41 6 39 5 44 -9 38 -67 -27 -139 -47 -216 -59 -105 -17 -115 -18 -115 -6
0 4 28 11 63 14 34 4 76 9 92 11 48 7 164 46 170 56 4 6 10 8 14 6 4 -3 13 23
20 57 19 89 21 97 32 97 9 0 7 -25 -7 -94 -4 -19 -2 -27 6 -24 6 2 11 7 10 12
-1 5 5 13 14 18 9 5 14 13 11 18 -3 5 0 12 6 16 8 5 10 2 5 -7 -4 -8 -1 -5 6
5 7 10 23 28 35 39 12 11 19 25 16 30 -4 6 1 8 11 4 14 -6 17 -3 12 8 -3 10
-2 13 5 9 6 -3 21 4 35 17 25 24 32 12 13 -23 -7 -13 -7 -18 -1 -14 6 3 17 -1
26 -10 9 -8 20 -13 25 -9 5 3 12 1 15 -4 4 -5 25 -12 49 -16 23 -4 45 -12 49
-18 3 -6 29 -11 56 -11 28 -1 48 -4 45 -8 -7 -13 12 -9 26 5 11 9 12 9 7 0 -5
-10 9 -12 60 -9 62 4 70 7 100 38 17 19 45 45 60 59 32 26 70 80 66 92 -1 4 2
7 7 7 5 0 7 9 4 20 -5 18 -11 20 -52 14 -25 -3 -73 -1 -105 5 -57 10 -62 10
-110 -18 -84 -47 -267 -67 -601 -66 -204 0 -257 12 -324 73 -20 19 -28 29 -19
22 9 -6 23 -8 29 -4 7 4 9 3 6 -3 -7 -12 61 -43 93 -43 11 0 20 -5 20 -10 0
-7 6 -7 20 0 15 8 20 8 20 -1 0 -8 4 -8 15 1 12 10 15 10 15 -1 0 -9 3 -10 8
-4 9 12 42 16 42 5 0 -5 -6 -11 -12 -13 -7 -3 14 -4 47 -2 47 2 60 6 60 18 0
9 4 19 8 23 4 4 7 2 7 -5 0 -19 28 -43 35 -31 3 5 1 10 -6 10 -24 0 2 14 30
16 16 1 47 12 71 24 23 12 45 18 48 14 4 -4 1 -9 -6 -11 -6 -3 -10 -9 -7 -13
9 -14 35 0 35 19 0 11 3 12 8 4 4 -6 20 -14 36 -17 21 -4 26 -2 22 10 -3 7 -1
14 4 14 6 0 10 -4 10 -9 0 -15 33 -22 42 -9 4 7 8 8 8 2 0 -6 23 -12 53 -13
28 -2 70 -4 92 -6 52 -4 67 5 142 78 45 43 66 58 73 51 8 -8 4 -20 -14 -41
l-25 -29 30 -11 c17 -7 37 -9 45 -6 8 3 14 1 14 -4 0 -5 19 -7 43 -4 l42 6 -3
100 c-1 55 -5 127 -8 160 l-5 60 -78 -3 c-113 -6 -223 20 -207 47 5 8 11 7 21
-2 7 -8 24 -13 37 -12 12 1 26 -3 30 -9 8 -13 146 -15 223 -4 28 4 39 4 25 0
-14 -4 -25 -12 -25 -17 1 -18 15 -189 21 -248 6 -53 8 -57 28 -52 11 4 40 20
64 36 23 16 47 29 52 29 5 0 18 12 30 28 12 15 25 27 28 27 7 -1 34 19 63 47
10 10 30 20 44 24 14 3 25 10 25 16 0 5 5 6 10 3 6 -3 10 -2 10 3 0 6 17 10
38 10 20 0 31 -3 25 -5 -7 -3 -13 -9 -13 -14 0 -14 22 -10 44 8 12 10 18 14
14 9 -12 -14 11 -36 29 -29 11 4 14 2 9 -5 -4 -7 -2 -12 3 -12 6 0 11 5 11 12
0 6 3 9 6 5 4 -3 19 0 35 9 16 8 29 12 29 9 0 -3 15 5 33 19 19 14 37 23 40
19 4 -3 7 -2 7 3 0 5 14 18 32 28 48 29 78 58 71 69 -3 6 -1 7 5 3 7 -4 12 -2
12 5 0 7 3 9 6 6 13 -13 75 90 105 176 32 87 45 111 33 60z m-2194 -119 c0
-20 -7 -17 -20 6 -9 16 -8 18 5 14 8 -4 15 -12 15 -20z m1426 5 c3 -6 1 -16
-6 -22 -10 -9 -11 -9 -6 1 4 6 2 12 -3 12 -6 0 -11 -5 -11 -11 0 -5 -4 -7 -10
-4 -6 3 -7 -1 -4 -9 4 -10 -3 -20 -20 -27 -14 -7 -26 -19 -26 -27 0 -8 -6 -12
-15 -8 -10 3 -15 -1 -15 -12 0 -12 -3 -13 -8 -5 -6 9 -15 6 -35 -13 -15 -14
-27 -19 -27 -13 0 6 -8 18 -17 25 -17 12 -17 13 2 20 11 4 23 12 27 18 5 7 8
4 8 -6 0 -10 -4 -18 -10 -18 -5 0 -10 -4 -10 -8 0 -5 7 -9 15 -9 8 0 13 2 10
5 -2 2 3 18 11 35 11 19 19 26 23 18 12 -18 41 -2 41 23 0 15 7 22 21 23 12 1
27 7 32 12 14 14 24 14 33 0z m-2026 -27 c0 -13 104 -72 146 -84 22 -5 41 -13
44 -17 18 -24 195 -61 292 -61 77 0 78 -1 78 -100 0 -49 5 -101 11 -117 6 -15
10 -48 10 -73 -1 -47 -29 -159 -31 -125 -4 62 -10 261 -9 325 l0 76 -82 3
c-106 3 -288 49 -361 90 -57 32 -164 122 -120 101 12 -6 22 -14 22 -18z m1924
-17 c-4 -8 -8 -15 -10 -15 -2 0 -4 7 -4 15 0 8 4 15 10 15 5 0 7 -7 4 -15z
m-921 -36 c-18 -11 -38 -17 -44 -13 -8 4 1 12 22 19 51 19 58 17 22 -6z m1147
2 c0 -10 -137 -62 -160 -60 -8 0 8 9 35 19 28 10 66 25 85 34 42 18 40 18 40
7z m-630 -61 c0 -5 -4 -10 -10 -10 -5 0 -10 5 -10 10 0 6 5 10 10 10 6 0 10
-4 10 -10z m425 -10 c-27 -12 -43 -12 -25 0 8 5 22 9 30 9 10 0 8 -3 -5 -9z
m-1312 -47 c-7 -2 -21 -2 -30 0 -10 3 -4 5 12 5 17 0 24 -2 18 -5z m54 1 c-3
-3 -12 -4 -19 -1 -8 3 -5 6 6 6 11 1 17 -2 13 -5z m628 -274 c-9 -18 -19 -30
-22 -27 -3 3 3 19 13 36 23 39 30 32 9 -9z m-795 -20 c-24 -15 -36 -11 -14 4
10 8 21 12 24 10 2 -3 -2 -9 -10 -14z m-1412 -45 c-6 -14 -13 -23 -15 -21 -5
5 15 46 22 46 3 0 -1 -11 -7 -25z m214 -281 l-9 -69 1 103 c1 77 3 95 9 69 5
-19 4 -66 -1 -103z m964 74 c-4 -18 -14 -40 -23 -48 -14 -14 -15 -13 -9 5 4
11 10 32 13 48 3 15 10 27 16 27 5 0 7 -13 3 -32z m89 -126 c50 -16 124 -35
165 -41 41 -7 88 -15 104 -18 l28 -5 -6 -87 c-5 -59 -2 -117 8 -181 20 -128
31 -326 19 -333 -6 -4 -13 27 -17 76 -4 45 -11 116 -17 157 -5 41 -12 141 -15
223 l-6 147 -47 0 c-86 0 -359 89 -345 112 3 5 13 3 22 -5 10 -8 58 -28 107
-45z m1636 -35 l22 -32 -31 29 c-18 17 -32 34 -32 38 0 15 18 0 41 -35z m-194
-99 c-3 -8 -6 -5 -6 6 -1 11 2 17 5 13 3 -3 4 -12 1 -19z m-2120 -35 c-3 -10
-5 -4 -5 12 0 17 2 24 5 18 2 -7 2 -21 0 -30z m2110 -15 c-3 -7 -5 -2 -5 12 0
14 2 19 5 13 2 -7 2 -19 0 -25z"/>
<path d="M7304 9249 c-19 -22 -19 -22 4 -8 12 8 22 17 22 21 0 12 -6 9 -26
-13z"/>
<path d="M6806 8365 c-4 -12 -2 -13 12 -7 9 5 23 7 30 5 6 -3 12 0 12 6 0 17
-47 13 -54 -4z"/>
<path d="M6828 8343 c7 -3 16 -2 19 1 4 3 -2 6 -13 5 -11 0 -14 -3 -6 -6z"/>
<path d="M6806 8314 c-11 -7 -17 -17 -13 -20 4 -4 2 -13 -5 -21 -6 -7 -8 -16
-5 -20 4 -3 14 11 23 32 12 29 18 35 25 24 5 -9 9 -10 9 -2 0 19 -14 22 -34 7z"/>
<path d="M6663 8184 c3 -4 -3 -14 -14 -23 -20 -16 -18 -58 3 -45 5 3 4 13 -4
22 -12 15 -11 16 5 3 13 -10 21 -11 28 -4 13 13 2 53 -13 53 -6 0 -9 -3 -5 -6z"/>
<path d="M6605 8120 c-4 -6 -2 -17 4 -23 15 -15 25 -2 13 19 -7 12 -11 13 -17
4z"/>
<path d="M6165 6270 c2 -11 -1 -20 -7 -20 -6 0 -8 -3 -4 -7 4 -5 14 1 22 11
13 19 14 19 14 2 0 -16 2 -16 16 -5 14 12 14 14 -2 26 -26 19 -43 16 -39 -7z"/>
<path d="M6147 6224 c-13 -13 -8 -36 7 -31 8 3 16 2 18 -4 2 -5 9 0 17 12 12
20 11 21 -8 16 -11 -2 -21 -1 -23 5 -2 5 -7 6 -11 2z"/>
<path d="M6139 6158 c-1 -12 -3 -35 -5 -50 -1 -15 1 -30 6 -33 12 -8 30 57 19
70 -5 5 -9 14 -9 20 0 5 5 3 11 -5 9 -12 10 -12 7 -1 -7 25 -28 24 -29 -1z"/>
<path d="M6426 6984 c-4 -14 -5 -28 -3 -31 3 -2 8 8 11 23 4 14 5 28 3 31 -3
2 -8 -8 -11 -23z"/>
<path d="M13176 5275 c4 -8 8 -15 10 -15 2 0 4 7 4 15 0 8 -4 15 -10 15 -5 0
-7 -7 -4 -15z"/>
<path d="M7407 3065 c-4 -8 -3 -16 1 -19 4 -3 9 4 9 15 2 23 -3 25 -10 4z"/>
<path d="M12917 2884 c-4 -4 -7 -19 -6 -33 l0 -26 10 24 c10 26 8 47 -4 35z"/>
<path d="M7856 2654 c-4 -20 -5 -38 -3 -40 3 -3 8 11 11 32 4 20 5 38 3 40 -3
3 -8 -11 -11 -32z"/>
<path d="M11320 1579 c0 -5 5 -7 10 -4 6 3 10 8 10 11 0 2 -4 4 -10 4 -5 0
-10 -5 -10 -11z"/>
</g>
</svg>
